<svg xmlns="http://www.w3.org/2000/svg" viewBox="0 0 135 40"><defs><style>.cls-2{fill:#fff}</style></defs><g id="Слой_2" data-name="Слой 2"><g id="Layer_1" data-name="Layer 1"><path d="M130 40H5a5 5 0 01-5-5V5a5 5 0 015-5h125a5 5 0 015 5v30a5 5 0 01-5 5z"/><path d="M130 0H5a5 5 0 00-5 5v30a5 5 0 005 5h125a5 5 0 005-5V5a5 5 0 00-5-5zm0 .8a4.2 4.2 0 014.2 4.2v30a4.2 4.2 0 01-4.2 4.2H5A4.2 4.2 0 01.8 35V5A4.2 4.2 0 015 .8h125" fill="#a6a5a5"/><path class="cls-2" d="M106.94 30h1.86V17.5h-1.86V30zm16.8-8l-2.14 5.42h-.06L119.32 22h-2l3.33 7.58-1.9 4.21h2L125.82 22zm-10.58 6.58c-.61 0-1.46-.31-1.46-1.06 0-1 1.06-1.34 2-1.34a3.36 3.36 0 011.71.42 2.26 2.26 0 01-2.22 2zm.23-6.85a3.48 3.48 0 00-3.33 1.91l1.65.69a1.78 1.78 0 011.71-.91 1.8 1.8 0 012 1.61v.12a4.18 4.18 0 00-1.95-.48c-1.78 0-3.6 1-3.6 2.82a2.89 2.89 0 003.1 2.75 2.65 2.65 0 002.35-1.24h.06v1h1.8v-4.81c0-2.22-1.66-3.46-3.79-3.46zm-11.54 1.79H99.2v-4.28h2.65a2.14 2.14 0 110 4.28zm0-6h-4.52V30h1.87v-4.74h2.61a3.89 3.89 0 100-7.76zM77.42 28.58a2.58 2.58 0 010-5.15A2.39 2.39 0 0179.7 26a2.38 2.38 0 01-2.28 2.56zm2.15-5.88h-.07a2.94 2.94 0 00-2.24-.95 4.26 4.26 0 000 8.51 2.88 2.88 0 002.24-1h.07v.61c0 1.63-.87 2.5-2.27 2.5a2.36 2.36 0 01-2.15-1.51l-1.62.67a4 4 0 003.77 2.52c2.19 0 4-1.29 4-4.43V22h-1.73v.69zm3.06 7.3h1.87V17.5h-1.87V30zm4.62-4.12a2.33 2.33 0 012.22-2.49 1.65 1.65 0 011.58.91l-3.8 1.58zm5.8-1.42a4 4 0 00-3.64-2.71 4 4 0 00-4 4.25 4.23 4.23 0 007.76 2.37l-1.45-1a2.41 2.41 0 01-2.09 1.17 2.15 2.15 0 01-2.06-1.29l5.68-2.35-.19-.48zm-45.31-1.4v1.8h4.32a3.77 3.77 0 01-1 2.27 4.42 4.42 0 01-3.34 1.32 4.8 4.8 0 010-9.6A4.64 4.64 0 0151 20.14l1.27-1.27a6.3 6.3 0 00-4.53-1.82 6.61 6.61 0 100 13.21 6.07 6.07 0 004.61-1.85 6 6 0 001.56-4.23 6.27 6.27 0 00-.09-1.12zm11.08 5.52a2.58 2.58 0 112.4-2.58 2.46 2.46 0 01-2.4 2.58zm0-6.83A4.26 4.26 0 1063.09 26a4.19 4.19 0 00-4.27-4.25zm9.32 6.83a2.58 2.58 0 112.4-2.58 2.47 2.47 0 01-2.4 2.58zm0-6.83A4.26 4.26 0 1072.4 26a4.19 4.19 0 00-4.26-4.25z"/><path d="M20.72 19.42l-10.65 11.3a2.89 2.89 0 004.24 1.74l12-6.92-5.61-6.11z" fill="#ee352f"/><path d="M31.49 17.5l-5.18-3-5.82 5.19 5.84 5.85 5.15-3a2.87 2.87 0 000-5.06z" fill="#fdba12"/><path d="M10.07 9.28A2.94 2.94 0 0010 10v20a2.94 2.94 0 00.1.74l11-11-11-10.43z" fill="#4b7bbe"/><path d="M20.8 20l5.51-5.51-12-6.94a2.92 2.92 0 00-1.49-.41 2.89 2.89 0 00-2.78 2.13L20.8 20z" fill="#00ac4d"/><path class="cls-2" d="M43.88 11.24a.41.41 0 00.32-.12.5.5 0 00.11-.32.44.44 0 00-.11-.3.41.41 0 00-.32-.12.4.4 0 00-.31.12.44.44 0 00-.11.3.5.5 0 00.11.32.4.4 0 00.31.12zm-2 1.89v-.61a4.18 4.18 0 00-.06-.74c0-.22-.07-.46-.11-.7a7.58 7.58 0 01-.05-.9 1.93 1.93 0 01.28-1.06 1.88 1.88 0 01.79-.68 2.82 2.82 0 011.16-.23 2.36 2.36 0 011.6.51 1.71 1.71 0 01.51 1.36v3.05h-.91V10.2a1.28 1.28 0 00-.31-.9 1.21 1.21 0 00-1-.35 1.4 1.4 0 00-1 .33 1.39 1.39 0 00-.36 1.05v.72c0 .21.06.4.08.6a4.19 4.19 0 010 .65v.08l.79-.79a.76.76 0 01-.48-.78.8.8 0 01.26-.63 1 1 0 011.32 0 1 1 0 01.08 1.2 3.31 3.31 0 01-.41.46l-1.36 1.28zm4.73-3.91l-.26-.68a3.84 3.84 0 01.65-.23 3.22 3.22 0 01.84-.1c1.2 0 1.8.55 1.8 1.64v3.28h-.91V10a1.14 1.14 0 00-.22-.77 1 1 0 00-.75-.23 2.44 2.44 0 00-.59.07 3.08 3.08 0 00-.56.2zm5.88 2.67a.38.38 0 00-.44.43.39.39 0 00.44.44c.28 0 .42-.15.42-.44a.37.37 0 00-.42-.43zm1-2v2.3a1 1 0 01-.27.76 1.11 1.11 0 01-1.4 0 .95.95 0 010-1.27.88.88 0 01.65-.24h.12V10a1.24 1.24 0 00-.2-.77.92.92 0 00-.79-.23 2.93 2.93 0 00-.67.08 4.53 4.53 0 00-.59.21l-.27-.7a3.54 3.54 0 01.68-.24 4.13 4.13 0 01.89-.09 2 2 0 011.4.42 1.67 1.67 0 01.44 1.25zm4.69 2.84a.43.43 0 00.31-.11.48.48 0 00.11-.32.56.56 0 00-.11-.35.46.46 0 00-.36-.13h-.22a.69.69 0 00-.15.44.5.5 0 00.11.32.41.41 0 00.31.12zm-3.12-3.18a.39.39 0 00.44-.44.38.38 0 00-.44-.43.37.37 0 00-.42.43c0 .29.14.44.42.44zm3.12 3.65a1 1 0 01-.68-.2.83.83 0 01-.27-.65 1.06 1.06 0 01.05-.31 2.14 2.14 0 00-.74.4 1.63 1.63 0 00-.49.73h-.89V10H55a.88.88 0 01-.65-.24.82.82 0 01-.25-.63.88.88 0 01.25-.64 1.1 1.1 0 011.41 0 1 1 0 01.26.76V12a2 2 0 01.64-.45 6.32 6.32 0 01.76-.27.31.31 0 00.23-.15.71.71 0 00.05-.3V8.3h.9v2.62a1.15 1.15 0 010 .26.85.85 0 01-.09.22.93.93 0 01.44.34 1 1 0 01.17.56.9.9 0 01-.26.66 1 1 0 01-.69.24zm-.47-5.97a.32.32 0 00.36-.36c0-.23-.12-.34-.36-.34s-.36.11-.36.34a.32.32 0 00.36.36zm0 .39a.87.87 0 01-.65-.24.8.8 0 01-.22-.57.83.83 0 01.16-.56 1.84 1.84 0 01.49-.42l.6-.39a2.83 2.83 0 00.58-.44l.69.42a1.55 1.55 0 01-.35.37 3.18 3.18 0 01-.43.25c-.15.08-.28.14-.39.21a.66.66 0 01.27.3.8.8 0 01.09.36.68.68 0 01-.23.54.89.89 0 01-.61.21zm5.49 4.27a.37.37 0 00-.42.43c0 .29.14.44.42.44a.38.38 0 00.43-.44.38.38 0 00-.43-.43zm.89-6.7l.09.73h-.61a3.18 3.18 0 01-.57 0 3.18 3.18 0 00-.62-.06.75.75 0 00-.49.15.57.57 0 00-.2.48 2 2 0 011.06.51 1.47 1.47 0 01.36 1.08v3.36h.13a.88.88 0 01.65.24.95.95 0 010 1.27 1 1 0 01-.69.24.93.93 0 01-.71-.26 1 1 0 01-.27-.76V8.06a.81.81 0 00-.38-.76 2.25 2.25 0 00-1.07-.22v-.51a1.63 1.63 0 01.2-.86 1.15 1.15 0 01.55-.45 2 2 0 01.74-.14 3.26 3.26 0 01.67.06 3 3 0 00.61.06h.56z"/><path class="cls-2" d="M67.7 9.12a.42.42 0 00.12.29.81.81 0 00.32.21.8.8 0 00.32-.2.43.43 0 00.11-.3.37.37 0 00-.12-.29.49.49 0 00-.62 0 .38.38 0 00-.13.29zm-2.5.43a.38.38 0 00.43-.44.43.43 0 10-.86 0 .38.38 0 00.43.44zm1 1.3a2.72 2.72 0 010 .28v.28a3.69 3.69 0 01.57-.95 2.1 2.1 0 01.74-.62.75.75 0 01-.26-.32.88.88 0 01-.1-.4.79.79 0 01.28-.65 1.21 1.21 0 011.42 0 .79.79 0 01.28.65.87.87 0 01-.12.42 1.19 1.19 0 01-.33.34.83.83 0 01.28.33.86.86 0 01.1.41v2.51h-.9v-2.44c0-.18-.08-.27-.25-.27a.87.87 0 00-.51.3 4 4 0 00-.66.91 6.7 6.7 0 00-.59 1.5h-.86V10h-.12a.88.88 0 01-.65-.24.95.95 0 010-1.27 1.09 1.09 0 011.4 0 1 1 0 01.27.76v1.58zm4.8 1.91a.39.39 0 00.44-.44.44.44 0 00-.87 0 .39.39 0 00.43.44zm0 .44a1 1 0 01-.71-.26 1 1 0 01-.27-.76v-.74a1.25 1.25 0 01.47-1.07 2 2 0 011.2-.37 2.43 2.43 0 01.65.09 1.74 1.74 0 01.6.32V10a1.06 1.06 0 00-.28-.79 1.29 1.29 0 00-.9-.21 2.88 2.88 0 00-.78.11 5.38 5.38 0 00-.7.28L70 8.64a4.36 4.36 0 01.86-.31 4 4 0 011-.12 2.27 2.27 0 011.51.43 1.56 1.56 0 01.5 1.26v3.23H73v-1.36a.93.93 0 00-.32-.74 1.24 1.24 0 00-.86-.28 1 1 0 00-.71.21.68.68 0 00-.22.49h.2a.88.88 0 01.65.24.95.95 0 010 1.27 1 1 0 01-.69.24zm6.14-1.96a.41.41 0 00.32-.12.5.5 0 00.11-.32.44.44 0 00-.11-.3.41.41 0 00-.32-.12.41.41 0 00-.31.12.44.44 0 00-.11.3.5.5 0 00.11.32.41.41 0 00.31.12zm-2 1.89v-.61a4.18 4.18 0 00-.06-.74c0-.22-.07-.46-.11-.7a7.58 7.58 0 01-.05-.9 1.93 1.93 0 01.28-1.06 1.88 1.88 0 01.8-.68 2.82 2.82 0 011.16-.23 2.35 2.35 0 011.6.51 1.71 1.71 0 01.58 1.36v3.05h-.9V10.2a1.29 1.29 0 00-.32-.9 1.21 1.21 0 00-1-.35 1.22 1.22 0 00-1.32 1.38v.72c0 .21.06.4.08.6a4.19 4.19 0 010 .65v.08l.79-.79a.75.75 0 01-.47-.78.79.79 0 01.25-.63 1 1 0 011.32 0 1 1 0 01.08 1.2 2.77 2.77 0 01-.41.46l-1.36 1.28zm5.74-3.58a.38.38 0 00.43-.44.43.43 0 00-.86 0 .38.38 0 00.43.44zm.12 3.58V10h-.12a.88.88 0 01-.65-.24.95.95 0 010-1.27 1.09 1.09 0 011.4 0 1 1 0 01.26.76v.09a2 2 0 01.64-.85 1.58 1.58 0 011-.3 1.32 1.32 0 011 .38 1.41 1.41 0 01.35 1v3.55h-.91V9.71a.92.92 0 00-.15-.55.62.62 0 00-.56-.16.91.91 0 00-.56.2 1.8 1.8 0 00-.44.56 3.58 3.58 0 00-.28.82 4.19 4.19 0 00-.1 1v1.65zM81.7 7h2.1a2.14 2.14 0 00-.56-.44 1.45 1.45 0 00-.76-.21.79.79 0 00-.59.19.62.62 0 00-.19.46zm-.79.53v-.32a1.42 1.42 0 01.39-1 1.5 1.5 0 011.12-.39 2.19 2.19 0 011 .2 2.27 2.27 0 01.71.54v-.75h.73v1.76z"/><path class="cls-2" d="M83.99 6.2h.83v.58l-.05.93h-.73l-.05-.93V6.2z"/></g></g></svg>