<svg xmlns="http://www.w3.org/2000/svg" viewBox="0 0 135 40"><defs><clipPath id="clip-path"><path fill="none" d="M0 0h135v40H0z"/></clipPath><style>.cls-2{clip-path:url(#clip-path)}.cls-4{fill:#fff}</style></defs><g id="Слой_2" data-name="Слой 2"><g class="cls-2" id="Layer_1" data-name="Layer 1"><g class="cls-2"><path d="M130 40H5a5 5 0 01-5-5V5a5 5 0 015-5h125a5 5 0 015 5v30a5 5 0 01-5 5"/><path d="M130 .8a4.2 4.2 0 014.2 4.2v30a4.2 4.2 0 01-4.2 4.2H5A4.2 4.2 0 01.8 35V5A4.2 4.2 0 015 .8zm0-.8H5a5 5 0 00-5 5v30a5 5 0 005 5h125a5 5 0 005-5V5a5 5 0 00-5-5" fill="#a6a5a5"/><path class="cls-4" d="M68.14 21.75A4.26 4.26 0 1072.41 26a4.19 4.19 0 00-4.27-4.26m0 6.83a2.58 2.58 0 112.4-2.57 2.46 2.46 0 01-2.4 2.57m-9.32-6.83A4.26 4.26 0 1063.09 26a4.2 4.2 0 00-4.27-4.26m0 6.83a2.58 2.58 0 112.4-2.57 2.46 2.46 0 01-2.4 2.57m-11.08-5.51v1.8h4.32a3.77 3.77 0 01-1 2.27 4.42 4.42 0 01-3.34 1.32 4.8 4.8 0 010-9.6A4.62 4.62 0 0151 20.14l1.27-1.27a6.3 6.3 0 00-4.53-1.82 6.61 6.61 0 100 13.21 6.07 6.07 0 004.61-1.85 6 6 0 001.56-4.23 6.27 6.27 0 00-.09-1.12zm45.31 1.4a4 4 0 00-3.64-2.71 4 4 0 00-4 4.26 4.16 4.16 0 004.22 4.25 4.23 4.23 0 003.55-1.89l-1.45-1a2.44 2.44 0 01-2.1 1.17 2.15 2.15 0 01-2.06-1.29l5.69-2.35zm-5.8 1.42a2.33 2.33 0 012.23-2.48 1.63 1.63 0 011.57.9zM82.63 30h1.87V17.5h-1.87zm-3.06-7.3h-.07a2.94 2.94 0 00-2.24-.95 4.26 4.26 0 000 8.51 2.88 2.88 0 002.24-1h.07v.61c0 1.63-.87 2.5-2.27 2.5a2.36 2.36 0 01-2.15-1.51l-1.62.67a4 4 0 003.77 2.52c2.19 0 4-1.29 4-4.43V22h-1.73zm-2.14 5.88a2.58 2.58 0 010-5.15A2.39 2.39 0 0179.7 26a2.38 2.38 0 01-2.27 2.56m24.38-11.06h-4.48V30h1.87v-4.74h2.61a3.89 3.89 0 100-7.76m0 6H99.2v-4.26h2.65a2.14 2.14 0 110 4.28m11.54-1.79a3.5 3.5 0 00-3.33 1.91l1.65.69a1.78 1.78 0 011.71-.91 1.8 1.8 0 012 1.61v.12a4.18 4.18 0 00-1.95-.48c-1.78 0-3.6 1-3.6 2.82a2.9 2.9 0 003.11 2.75 2.65 2.65 0 002.34-1.24h.06v1h1.8v-4.81c0-2.22-1.65-3.46-3.79-3.46m-.23 6.85c-.61 0-1.46-.31-1.46-1.06 0-1 1.06-1.34 2-1.34a3.32 3.32 0 011.7.42 2.26 2.26 0 01-2.22 2m10.56-6.6l-2.14 5.42h-.06L119.32 22h-2l3.33 7.58-1.9 4.21h2L125.82 22zm-16.8 8h1.86V17.5h-1.86z"/><path d="M20.72 19.42l-10.65 11.3a2.89 2.89 0 004.24 1.74l12-6.92z" fill="#ea4435"/><path d="M31.49 17.5l-5.18-3-5.82 5.19 5.85 5.85 5.14-3a2.87 2.87 0 000-5.06" fill="#f9bc15"/><path d="M10.07 9.28A2.94 2.94 0 0010 10v20a2.92 2.92 0 00.1.73l11-11z" fill="#547dbf"/><path d="M20.8 20l5.51-5.51-12-6.94a2.92 2.92 0 00-1.49-.41 2.89 2.89 0 00-2.78 2.13z" fill="#33a851"/></g><path class="cls-4" d="M41.78 6.9h2a3.37 3.37 0 011.68.4 2.59 2.59 0 011.1 1.1A3.29 3.29 0 0147 10a3.29 3.29 0 01-.39 1.62 2.65 2.65 0 01-1.1 1.1 3.47 3.47 0 01-1.68.39h-2zm2 5.33a2.23 2.23 0 001.65-.59A2.19 2.19 0 0046 10a2 2 0 00-2.24-2.21h-1v4.42zM49.7 6.9h1.09l2.36 6.23h-1.06l-.57-1.6H49l-.58 1.6h-1zm1.51 3.75l-.7-1.91-.23-.74h-.06l-.22.74-.7 1.91zm2.88-3.75h2.14a2.2 2.2 0 011 .25 1.94 1.94 0 01.74.68 1.8 1.8 0 01.27 1 1.83 1.83 0 01-.27 1 1.94 1.94 0 01-.74.68 2.19 2.19 0 01-1 .24H55v2.42h-.95zm2.16 2.91a1 1 0 00.77-.3 1 1 0 000-1.4 1 1 0 00-.77-.3H55v2zm4.44-2.91h1.09l2.35 6.23h-1l-.57-1.6H60l-.58 1.6h-1zm1.5 3.75l-.69-1.91-.24-.74-.26.74-.7 1.91zm3.57-2.84H64V6.9h4.45v.91h-1.73v5.32h-1zm3.69-.91h1v3l2.55-3h1.18V7L71.9 9.58l2.48 3.5v.05h-1.16l-2-2.81-.84 1v1.82h-1zm7.87 0h1.09l2.36 6.23h-1l-.58-1.6H76.6l-.6 1.6h-1zm1.51 3.75l-.7-1.91L77.9 8h-.05l-.24.72-.7 1.91zm2.88-3.75h1.13l2.82 4.58V6.9h1v6.23h-1l-3-4.81h-.06l.06 1.2v3.61h-1zm8.29 0h2a3.38 3.38 0 011.69.4 2.65 2.65 0 011.1 1.1 3.29 3.29 0 01.42 1.6 3.29 3.29 0 01-.39 1.62 2.71 2.71 0 01-1.1 1.1 3.49 3.49 0 01-1.69.39H90zm2 5.33a2.23 2.23 0 001.65-.59 2.19 2.19 0 00.59-1.64 2.19 2.19 0 00-.58-1.62A2.19 2.19 0 0092 7.81h-1v4.42zm4.46-5.33h1v6.23h-1z"/></g></g></svg>