<svg xmlns="http://www.w3.org/2000/svg" viewBox="0 0 119.66 40"><defs><style>.cls-2{fill:#fff}</style></defs><g id="Слой_2" data-name="Слой 2"><g id="livetype"><path d="M110.13 0H7.52a13.21 13.21 0 00-2 .18 6.67 6.67 0 00-1.9.63A6.44 6.44 0 002 2 6.26 6.26 0 00.82 3.62a6.6 6.6 0 00-.62 1.9 13 13 0 00-.18 2v24.96a13 13 0 00.18 2 6.59 6.59 0 00.63 1.9A6.21 6.21 0 002 38a6.27 6.27 0 001.62 1.18 6.7 6.7 0 001.9.63 13.45 13.45 0 002 .18h104.62a13.28 13.28 0 002-.18 6.8 6.8 0 001.91-.63 6.28 6.28 0 001.62-1.18 6.39 6.39 0 001.18-1.61 6.6 6.6 0 00.62-1.9 13.51 13.51 0 00.19-2V7.53a13.51 13.51 0 00-.19-2 6.62 6.62 0 00-.62-1.9A6.47 6.47 0 00116 .82a6.77 6.77 0 00-1.91-.63 13 13 0 00-2-.18h-2z" fill="#a6a6a6"/><path d="M8.44 39.13h-.9A12.69 12.69 0 015.67 39 5.88 5.88 0 014 38.4a5.41 5.41 0 01-1.4-1 5.32 5.32 0 01-1-1.4 5.72 5.72 0 01-.54-1.66 12.41 12.41 0 01-.17-1.87V7.55a12.37 12.37 0 01.17-1.87A5.76 5.76 0 011.6 4a5.37 5.37 0 011-1.4 5.57 5.57 0 011.4-1 5.82 5.82 0 011.65-.54A12.59 12.59 0 017.54.89h104.59a12.38 12.38 0 011.86.16 5.94 5.94 0 011.67.55 5.59 5.59 0 012.41 2.4 5.76 5.76 0 01.54 1.65 13 13 0 01.17 1.89v24.93a12.73 12.73 0 01-.17 1.85 5.74 5.74 0 01-.54 1.67 5.48 5.48 0 01-1 1.39 5.41 5.41 0 01-1.4 1A5.86 5.86 0 01114 39a12.54 12.54 0 01-1.87.16H8.44z"/><g id="_Group_" data-name="Group"><g id="_Group_2" data-name="Group 2"><g id="_Group_3" data-name="Group 3"><path id="_Path_" data-name="Path" class="cls-2" d="M24.77 20.3a5 5 0 012.36-4.15 5.07 5.07 0 00-4-2.16c-1.68-.18-3.31 1-4.16 1s-2.19-1-3.61-1a5.32 5.32 0 00-4.47 2.73C9 20.11 10.4 25 12.25 27.74c.93 1.33 2 2.81 3.43 2.75s1.91-.88 3.58-.88 2.14.88 3.59.85 2.43-1.33 3.32-2.67a11 11 0 001.52-3.09 4.78 4.78 0 01-2.92-4.4z"/><path id="_Path_2" data-name="Path 2" class="cls-2" d="M22 12.21a4.87 4.87 0 001.11-3.49 5 5 0 00-3.21 1.66 4.64 4.64 0 00-1.14 3.36A4.1 4.1 0 0022 12.21z"/></g></g><path class="cls-2" d="M42.3 27.14h-4.73l-1.14 3.36h-2l4.48-12.42H41l4.48 12.42h-2zm-4.24-1.55h3.75L40 20.14h-.05zm17.1.41c0 2.81-1.51 4.62-3.78 4.62A3.07 3.07 0 0148.53 29v4.48h-1.9v-12h1.8v1.51a3.21 3.21 0 012.88-1.6c2.34-.04 3.85 1.77 3.85 4.61zm-1.91 0c0-1.83-.95-3-2.39-3s-2.37 1.23-2.37 3 1 3 2.38 3 2.38-1.18 2.38-3zm11.87 0c0 2.81-1.51 4.62-3.78 4.62A3.07 3.07 0 0158.5 29v4.48h-1.9v-12h1.8v1.51a3.21 3.21 0 012.88-1.6c2.33-.04 3.84 1.77 3.84 4.61zm-1.91 0c0-1.83-.95-3-2.39-3s-2.37 1.23-2.37 3 1 3 2.38 3 2.39-1.2 2.39-3zm8.5 1c.14 1.23 1.33 2 3 2s2.69-.81 2.69-1.92-.68-1.54-2.29-1.94l-1.61-.39c-2.28-.55-3.34-1.62-3.34-3.35 0-2.14 1.87-3.61 4.52-3.61s4.42 1.47 4.48 3.61h-1.9c-.11-1.24-1.14-2-2.63-2s-2.52.76-2.52 1.86c0 .88.65 1.39 2.25 1.79l1.37.34c2.55.6 3.61 1.63 3.61 3.44 0 2.32-1.85 3.78-4.79 3.78-2.75 0-4.61-1.42-4.73-3.67zm11.64-7.7v2.14h1.72v1.47h-1.72v5c0 .78.34 1.14 1.1 1.14a5.81 5.81 0 00.61 0v1.46a5.1 5.1 0 01-1 .09c-1.83 0-2.55-.69-2.55-2.44v-5.25h-1.35v-1.47h1.32V19.3zm2.72 6.7c0-2.85 1.68-4.64 4.29-4.64s4.29 1.79 4.29 4.64-1.65 4.61-4.29 4.61-4.29-1.78-4.29-4.61zm6.7 0c0-2-.9-3.11-2.4-3.11S88 24 88 26s.89 3.11 2.4 3.11 2.4-1.14 2.4-3.11zm3.42-4.56H98V23a2.16 2.16 0 012.18-1.64 2.87 2.87 0 01.64.07v1.74A2.6 2.6 0 00100 23a1.87 1.87 0 00-2 2.13v5.37h-1.81zm13.19 6.4c-.25 1.64-1.85 2.77-3.9 2.77-2.63 0-4.27-1.76-4.27-4.6s1.64-4.68 4.19-4.68 4.08 1.72 4.08 4.47v.64h-6.39v.11a2.36 2.36 0 002.14 2.56h.29a2 2 0 002.09-1.27zm-6.28-2.7h4.53a2.18 2.18 0 00-2.05-2.29h-.17a2.29 2.29 0 00-2.31 2.28z"/></g><path class="cls-2" d="M35.43 11.72c0-1.94 1-3.13 2.69-3.13a2.38 2.38 0 012.48 2.07h-.92a1.53 1.53 0 00-1.56-1.2c-1.07 0-1.74.87-1.74 2.27S37 14 38.12 14a1.5 1.5 0 001.55-1.1h.92a2.33 2.33 0 01-2.48 2c-1.65-.06-2.68-1.25-2.68-3.18zm6.18.72a2.13 2.13 0 114.25 0 2.13 2.13 0 11-4.25 0zm3.33 0c0-1-.44-1.55-1.21-1.55s-1.21.57-1.21 1.55S43 14 43.74 14s1.2-.58 1.2-1.56zM47 10.19h.86v.72H48a1.35 1.35 0 011.34-.8 1.46 1.46 0 011.56 1.67v2.92H50V12c0-.72-.31-1.08-1-1.08a1 1 0 00-1.08 1.14v2.64H47zm6.89-.08c1 0 1.67.47 1.76 1.27h-.85c-.08-.33-.41-.54-.91-.54s-.87.24-.87.59.23.44.72.55l.75.17c.86.2 1.26.57 1.26 1.23 0 .85-.79 1.41-1.87 1.41S52.11 14.3 52 13.5h.89a.91.91 0 001 .56c.55 0 .95-.25.95-.61s-.21-.44-.66-.55l-.79-.18c-.86-.2-1.25-.59-1.25-1.26s.74-1.35 1.75-1.35zm2.98-.67L57.9 8h1l-1.12 1.44zm.09.75h.88v4.5H57zm2.27 4.96h.91c.08.33.45.54 1.05.54s1.18-.35 1.18-.95v-.86h-.07a1.51 1.51 0 01-1.39.76c-1.15 0-1.86-.89-1.86-2.24s.72-2.27 1.87-2.27a1.56 1.56 0 011.41.79h.07v-.72h.85v4.54c0 1-.81 1.68-2.08 1.68s-1.85-.51-1.94-1.27zm3.16-2.76c0-.9-.46-1.47-1.22-1.47S60 11.49 60 12.39s.43 1.47 1.19 1.47 1.19-.57 1.19-1.47zm6.08 2.31h-.86V14h-.07a1.35 1.35 0 01-1.36.8 1.46 1.46 0 01-1.55-1.67v-2.94h.89v2.69c0 .73.29 1.08.95 1.08a1 1 0 001.11-1.13v-2.64h.89zm5.22-1.22a1.83 1.83 0 01-2 1.3 2 2 0 01-2.08-2.32 2.08 2.08 0 011.78-2.33h.29c1.25 0 2 .86 2 2.27v.31h-3.12A1.19 1.19 0 0071.65 14h.11a1.08 1.08 0 001.07-.55zM70.56 12h2.27a1.09 1.09 0 00-1-1.16h-.11A1.15 1.15 0 0070.56 12zM75 8.44h.89v6.26H75zm2.1 4a2.13 2.13 0 114.25 0 2.13 2.13 0 11-4.25 0zm3.33 0c0-1-.44-1.55-1.21-1.55S78 11.47 78 12.44 78.45 14 79.23 14s1.2-.58 1.2-1.56zm8.36 1.04a1.83 1.83 0 01-2 1.3 2 2 0 01-2.08-2.32 2.08 2.08 0 011.78-2.33h.29c1.25 0 2 .86 2 2.27v.31h-3.11A1.19 1.19 0 0086.75 14h.11a1.08 1.08 0 001.07-.55zM85.67 12h2.27a1.09 1.09 0 00-1-1.16h-.11A1.15 1.15 0 0085.67 12zM90 10.19h.86v.72H91a1.35 1.35 0 011.34-.8 1.46 1.46 0 011.56 1.67v2.92H93V12c0-.72-.31-1.08-1-1.08a1 1 0 00-1.08 1.14v2.64H90zm11.49 3.29a1.83 1.83 0 01-2 1.3 2 2 0 01-2.08-2.32 2.08 2.08 0 011.78-2.33h.29c1.25 0 2 .86 2 2.27v.31h-3.12A1.19 1.19 0 0099.45 14h.11a1.08 1.08 0 001.07-.55zM98.36 12h2.27a1.09 1.09 0 00-1-1.16h-.11A1.15 1.15 0 0098.36 12zm4.42-3.56h.89v6.26h-.89z" id="_Group_4" data-name="Group 4"/></g></g></svg>