<svg xmlns="http://www.w3.org/2000/svg" viewBox="0 0 135 40"><defs><linearGradient id="a" x1="21.8" y1="-176.29" x2="5.02" y2="-159.51" gradientTransform="translate(0 185)" gradientUnits="userSpaceOnUse"><stop offset="0" stop-color="#00a0ff"/><stop offset=".01" stop-color="#00a1ff"/><stop offset=".26" stop-color="#00beff"/><stop offset=".51" stop-color="#00d2ff"/><stop offset=".76" stop-color="#00dfff"/><stop offset="1" stop-color="#00e3ff"/></linearGradient><linearGradient id="b" x1="33.83" y1="-165" x2="9.64" y2="-165" gradientTransform="translate(0 185)" gradientUnits="userSpaceOnUse"><stop offset="0" stop-color="#ffe000"/><stop offset=".41" stop-color="#ffbd00"/><stop offset=".78" stop-color="orange"/><stop offset="1" stop-color="#ff9c00"/></linearGradient><linearGradient id="c" x1="24.83" y1="-162.7" x2="2.07" y2="-139.95" gradientTransform="translate(0 185)" gradientUnits="userSpaceOnUse"><stop offset="0" stop-color="#ff3a44"/><stop offset="1" stop-color="#c31162"/></linearGradient><linearGradient id="d" x1="7.3" y1="-184.82" x2="17.46" y2="-174.66" gradientTransform="translate(0 185)" gradientUnits="userSpaceOnUse"><stop offset="0" stop-color="#32a071"/><stop offset=".07" stop-color="#2da771"/><stop offset=".48" stop-color="#15cf74"/><stop offset=".8" stop-color="#06e775"/><stop offset="1" stop-color="#00f076"/></linearGradient></defs><g data-name="Слой 2"><g data-name="Слой 1"><g data-name="Слой 2"><rect width="135" height="40" rx="5" ry="5"/><path d="M130 .8a4.2 4.2 0 014.2 4.2v30a4.2 4.2 0 01-4.2 4.2H5A4.2 4.2 0 01.8 35V5A4.2 4.2 0 015 .8h125m0-.8H5a5 5 0 00-5 5v30a5 5 0 005 5h125a5 5 0 005-5V5a5 5 0 00-5-5z" fill="#a6a6a6"/><path d="M68.14 21.75A4.25 4.25 0 1072.41 26a4.19 4.19 0 00-4.13-4.25zm0 6.83a2.58 2.58 0 112.39-2.75V26a2.46 2.46 0 01-2.34 2.58zm-9.31-6.83A4.25 4.25 0 1063.09 26 4.19 4.19 0 0059 21.75h-.13zm0 6.83a2.58 2.58 0 112.38-2.76V26a2.46 2.46 0 01-2.34 2.58h-.05zm-11.09-5.52v1.8h4.32a3.77 3.77 0 01-1 2.27 4.42 4.42 0 01-3.33 1.32 4.8 4.8 0 010-9.6A4.6 4.6 0 0151 20.14l1.27-1.27A6.29 6.29 0 0047.74 17a6.61 6.61 0 10-.51 13.21h.51a5.84 5.84 0 006.17-6.07 5.87 5.87 0 00-.1-1.13zm45.31 1.4a3.92 3.92 0 00-7.65 1.28V26a4.16 4.16 0 004.07 4.25h.15a4.23 4.23 0 003.54-1.88l-1.45-1a2.43 2.43 0 01-2.09 1.18 2.16 2.16 0 01-2.06-1.29l5.69-2.35zm-5.8 1.42a2.33 2.33 0 012.17-2.48 1.65 1.65 0 011.58.9zM82.63 30h1.87V17.5h-1.87zm-3.06-7.3h-.07a3 3 0 00-2.24-1 4.26 4.26 0 000 8.51 2.9 2.9 0 002.24-1h.06v.61c0 1.63-.87 2.5-2.27 2.5a2.35 2.35 0 01-2.14-1.51l-1.63.68A4.05 4.05 0 0077.29 34c2.19 0 4-1.29 4-4.43V22h-1.72zm-2.14 5.88a2.59 2.59 0 010-5.16 2.4 2.4 0 012.27 2.52V26a2.38 2.38 0 01-2.17 2.57h-.1zm24.38-11.08h-4.47V30h1.87v-4.74h2.61a3.89 3.89 0 100-7.76zm0 6H99.2v-4.26h2.65a2.14 2.14 0 010 4.29zm11.53-1.8a3.5 3.5 0 00-3.34 1.91l1.66.69a1.77 1.77 0 011.7-.92 1.8 1.8 0 012 1.58v.16a4.13 4.13 0 00-1.95-.48c-1.79 0-3.6 1-3.6 2.81a2.89 2.89 0 003 2.75h.08a2.63 2.63 0 002.4-1.2h.06v1h1.8v-4.81c0-2.19-1.66-3.46-3.79-3.46zm-.23 6.85c-.61 0-1.46-.31-1.46-1.06 0-1 1.06-1.33 2-1.33a3.32 3.32 0 011.7.42 2.26 2.26 0 01-2.19 2zM123.74 22l-2.14 5.42h-.06L119.32 22h-2l3.33 7.58-1.9 4.21h1.95L125.82 22zm-16.81 8h1.87V17.5h-1.87z" fill="#fff"/><path d="M10.44 7.54a2 2 0 00-.44 1.4v22.12a2 2 0 00.46 1.4l.07.07L22.9 20.15v-.29L10.51 7.47z" fill="url(#a)"/><path d="M27 24.28l-4.1-4.13v-.29l4.1-4.14h.09L32 18.56c1.4.79 1.4 2.09 0 2.89l-4.89 2.78z" fill="url(#b)"/><path d="M27.12 24.22L22.9 20 10.44 32.46a1.63 1.63 0 002.08.06l14.61-8.3" fill="url(#c)"/><path d="M27.12 15.78l-14.61-8.3a1.63 1.63 0 00-2.08.06L22.9 20z" fill="url(#d)"/><path d="M27 24.13l-14.49 8.25a1.67 1.67 0 01-2 0l-.07.07.07.07a1.66 1.66 0 002 0l14.61-8.3z" style="isolation:isolate" opacity=".2"/><path d="M10.44 32.32a2 2 0 01-.46-1.4v.15a2 2 0 00.46 1.4l.07-.07zM32 21.3l-5 2.83.09.09L32 21.44A1.75 1.75 0 0033 20a1.86 1.86 0 01-1 1.3z" style="isolation:isolate" opacity=".12"/><path d="M12.51 7.62L32 18.7a1.86 1.86 0 011 1.3 1.75 1.75 0 00-1-1.44L12.51 7.48C11.11 6.69 10 7.35 10 8.95v.15c0-1.61 1.12-2.27 2.51-1.48z" style="isolation:isolate" opacity=".25" fill="#fff"/><path d="M41.28 13V7h1.83a3 3 0 012.21.83 2.94 2.94 0 01.84 2.17 2.94 2.94 0 01-.83 2.17 3 3 0 01-2.21.83zm.77-.74h1.06a2.25 2.25 0 001.65-.6 2.23 2.23 0 00.61-1.66 2.09 2.09 0 00-1.91-2.26H42zm5.19.74V7H48v6zm3.84.13a2.24 2.24 0 01-1.28-.43 2 2 0 01-.8-1.2l.7-.28a1.61 1.61 0 00.51.83 1.3 1.3 0 00.88.34 1.4 1.4 0 00.86-.26.84.84 0 00.36-.72.92.92 0 00-.36-.77 3.68 3.68 0 00-1.13-.51 3 3 0 01-1.21-.65 1.36 1.36 0 01-.41-1 1.49 1.49 0 01.51-1.12A1.87 1.87 0 0151 6.87a1.93 1.93 0 011.24.38 1.76 1.76 0 01.62.83l-.7.29a1 1 0 00-.37-.53 1.31 1.31 0 00-1.53 0 .75.75 0 00-.31.62.7.7 0 00.29.57 2.78 2.78 0 00.85.41 7.24 7.24 0 01.74.28 3.38 3.38 0 01.6.36 1.42 1.42 0 01.46.55 1.79 1.79 0 01.16.77 1.65 1.65 0 01-.18.78 1.46 1.46 0 01-.48.54 2.37 2.37 0 01-.64.31 2.4 2.4 0 01-.67.1zM55 13h-.77V7h2a1.9 1.9 0 011.32.51 1.74 1.74 0 01.1 2.46l-.1.1a1.89 1.89 0 01-1.32.51H55zm0-3.17h1.29a1.05 1.05 0 00.81-1.74 1 1 0 00-.78-.33H55zm9 2.39a3.12 3.12 0 01-4.4 0 3.24 3.24 0 010-4.45 3.1 3.1 0 014.38 0 3.23 3.23 0 01.02 4.45zm-3.83-.5a2.31 2.31 0 003.26 0 2.56 2.56 0 000-3.44 2.31 2.31 0 00-3.26 0 2.56 2.56 0 000 3.44zM66 13V7h.94l2.92 4.67V7h.77v6h-.8l-3.05-4.89V13zm6 0V7h.77v6zm2.1 0V7h2.17a1.76 1.76 0 011.22.46A1.51 1.51 0 0178 8.63a1.31 1.31 0 01-.22.75 1.39 1.39 0 01-.59.49 1.52 1.52 0 01.73.52 1.36 1.36 0 01.29.86 1.57 1.57 0 01-.54 1.22 1.85 1.85 0 01-1.28.49zm.77-3.43h1.4a.9.9 0 00.7-.29A.89.89 0 0077 8a.86.86 0 00-.67-.29h-1.46zm0 2.69h1.55a.92.92 0 00.72-.31 1 1 0 00-.72-1.68h-1.55zm4.37.74V7H80v5.26h2.6V13zm7.85-5.26h-2.74v1.9h2.46v.72h-2.46v1.9h2.73V13h-3.5V7h3.5zm6.72 0h-2.73v1.9h2.46v.72h-2.46v1.9h2.73V13h-3.5V7h3.5zM95 13V7h1l2.92 4.67V7h.77v6h-.8l-3.05-4.89V13z" stroke="#fff" stroke-miterlimit="10" stroke-width=".2" fill="#fff"/></g></g></g></svg>