<svg xmlns="http://www.w3.org/2000/svg" viewBox="0 0 135 40"><defs><linearGradient id="a" x1="21.8" y1="173.29" x2="5.02" y2="156.51" gradientTransform="matrix(1 0 0 -1 0 182)" gradientUnits="userSpaceOnUse"><stop offset="0" stop-color="#00a0ff"/><stop offset=".01" stop-color="#00a1ff"/><stop offset=".26" stop-color="#00beff"/><stop offset=".51" stop-color="#00d2ff"/><stop offset=".76" stop-color="#00dfff"/><stop offset="1" stop-color="#00e3ff"/></linearGradient><linearGradient id="b" x1="33.83" y1="162" x2="9.64" y2="162" gradientTransform="matrix(1 0 0 -1 0 182)" gradientUnits="userSpaceOnUse"><stop offset="0" stop-color="#ffe000"/><stop offset=".41" stop-color="#ffbd00"/><stop offset=".78" stop-color="orange"/><stop offset="1" stop-color="#ff9c00"/></linearGradient><linearGradient id="c" x1="24.83" y1="159.7" x2="2.07" y2="136.95" gradientTransform="matrix(1 0 0 -1 0 182)" gradientUnits="userSpaceOnUse"><stop offset="0" stop-color="#ff3a44"/><stop offset="1" stop-color="#c31162"/></linearGradient><linearGradient id="d" x1="7.3" y1="181.82" x2="17.46" y2="171.66" gradientTransform="matrix(1 0 0 -1 0 182)" gradientUnits="userSpaceOnUse"><stop offset="0" stop-color="#32a071"/><stop offset=".07" stop-color="#2da771"/><stop offset=".48" stop-color="#15cf74"/><stop offset=".8" stop-color="#06e775"/><stop offset="1" stop-color="#00f076"/></linearGradient></defs><g data-name="Слой 2"><rect width="135" height="40" rx="5" ry="5"/><path d="M68.14 21.75A4.25 4.25 0 1072.41 26a4.19 4.19 0 00-4.27-4.25zm0 6.83a2.58 2.58 0 112.4-2.58 2.46 2.46 0 01-2.4 2.58zm-9.31-6.83A4.25 4.25 0 1063.09 26a4.19 4.19 0 00-4.27-4.25zm0 6.83A2.58 2.58 0 1161.22 26a2.46 2.46 0 01-2.4 2.58zm-11.09-5.52v1.8h4.32a3.77 3.77 0 01-1 2.27 4.42 4.42 0 01-3.33 1.32 4.8 4.8 0 010-9.6A4.6 4.6 0 0151 20.14l1.27-1.27A6.29 6.29 0 0047.74 17a6.61 6.61 0 100 13.21 6 6 0 004.61-1.85 6 6 0 001.56-4.22 5.87 5.87 0 00-.1-1.13zm45.31 1.4a4 4 0 00-3.64-2.71 4 4 0 00-4 4.25 4.16 4.16 0 004.22 4.25 4.23 4.23 0 003.54-1.88l-1.45-1a2.43 2.43 0 01-2.09 1.18 2.16 2.16 0 01-2.06-1.29l5.69-2.35zm-5.8 1.42a2.33 2.33 0 012.22-2.48 1.65 1.65 0 011.58.9zM82.63 30h1.87V17.5h-1.87zm-3.06-7.3h-.07a3 3 0 00-2.24-1 4.26 4.26 0 000 8.51 2.9 2.9 0 002.24-1h.06v.61c0 1.63-.87 2.5-2.27 2.5a2.35 2.35 0 01-2.14-1.51l-1.63.68A4.05 4.05 0 0077.29 34c2.19 0 4-1.29 4-4.43V22h-1.72zm-2.14 5.88a2.59 2.59 0 010-5.16A2.4 2.4 0 0179.7 26a2.38 2.38 0 01-2.28 2.58zm24.38-11.08h-4.48V30h1.87v-4.74h2.61a3.89 3.89 0 100-7.76zm0 6H99.2v-4.26h2.65a2.14 2.14 0 110 4.29zm11.53-1.8a3.5 3.5 0 00-3.33 1.91l1.66.69a1.77 1.77 0 011.7-.92 1.8 1.8 0 012 1.61v.13a4.13 4.13 0 00-1.95-.48c-1.79 0-3.6 1-3.6 2.81a2.89 2.89 0 003.1 2.75 2.63 2.63 0 002.4-1.2h.06v1h1.8v-4.81c0-2.19-1.66-3.46-3.79-3.46zm-.23 6.85c-.61 0-1.46-.31-1.46-1.06 0-1 1.06-1.33 2-1.33a3.32 3.32 0 011.7.42 2.26 2.26 0 01-2.19 2zM123.74 22l-2.14 5.42h-.06L119.32 22h-2l3.33 7.58-1.9 4.21h1.95L125.82 22zm-16.81 8h1.87V17.5h-1.87z" fill="#fff"/><path d="M10.44 7.54a2 2 0 00-.44 1.4v22.12a2 2 0 00.46 1.4l.07.07L22.9 20.15v-.29L10.51 7.47z" fill="url(#a)"/><path d="M27 24.28l-4.1-4.13v-.29l4.1-4.14.09.05L32 18.56c1.4.79 1.4 2.09 0 2.89l-4.89 2.78z" fill="url(#b)"/><path d="M27.12 24.23L22.9 20 10.44 32.46a1.63 1.63 0 002.08.06l14.61-8.3" fill="url(#c)"/><path d="M27.12 15.78l-14.61-8.3a1.63 1.63 0 00-2.08.06L22.9 20z" fill="url(#d)"/><path d="M27 24.13l-14.49 8.25a1.67 1.67 0 01-2 0l-.07.07.07.07a1.66 1.66 0 002 0l14.61-8.3z" style="isolation:isolate" opacity=".2"/><path d="M10.44 32.32a2 2 0 01-.46-1.4v.15a2 2 0 00.46 1.4l.07-.07zM32 21.3l-5 2.83.09.09L32 21.44A1.75 1.75 0 0033 20a1.86 1.86 0 01-1 1.3z" style="isolation:isolate" opacity=".12"/><path d="M12.51 7.62L32 18.7a1.86 1.86 0 011 1.3 1.75 1.75 0 00-1-1.44L12.51 7.48C11.12 6.68 10 7.34 10 8.94v.15c0-1.6 1.12-2.26 2.51-1.47z" style="isolation:isolate" opacity=".25" fill="#fff"/><path d="M43.32 13.17a2.1 2.1 0 01-1.17-.38 1.94 1.94 0 01-.79-1.12l.73-.31a1.5 1.5 0 00.46.76 1.15 1.15 0 00.76.27 1.25 1.25 0 00.84-.31 1 1 0 00.35-.76 1 1 0 00-.36-.75 1.31 1.31 0 00-.87-.31h-.52v-.74h.46a1.17 1.17 0 00.79-.26.87.87 0 00.31-.7.78.78 0 00-.3-.65 1.18 1.18 0 00-.75-.24 1 1 0 00-1 .78l-.74-.31a2 2 0 01.62-.86 1.74 1.74 0 011.16-.38 2 2 0 011.34.47 1.51 1.51 0 01.53 1.19 1.37 1.37 0 01-.8 1.29 1.72 1.72 0 01.72.56 1.44 1.44 0 01.28.89 1.69 1.69 0 01-.59 1.32 2.09 2.09 0 01-1.46.55zm2.52-.17l2.36-6.24h.91L51.47 13h-.89l-.6-1.7h-2.64l-.61 1.7zm1.78-2.45h2.08l-1-2.83zM52.28 13V6.76h2.27a1.84 1.84 0 011.27.49 1.57 1.57 0 01.54 1.22 1.37 1.37 0 01-.23.79 1.46 1.46 0 01-.62.52 1.59 1.59 0 01.76.54 1.42 1.42 0 01.3.89 1.65 1.65 0 01-.57 1.31 1.93 1.93 0 01-1.34.51zm.8-3.58h1.46a.94.94 0 00.73-.3.94.94 0 000-1.32.9.9 0 00-.7-.3h-1.5zm0 2.81h1.62a1 1 0 00.75-.32 1 1 0 00.29-.71 1.05 1.05 0 00-1.08-1h-1.58zM57 13l2.36-6.27h.91L62.6 13h-.89l-.6-1.7h-2.64l-.61 1.7zm1.78-2.45h2.08l-1-2.83zM63.41 13V6.76h.8v2.69h3.13V6.76h.8V13h-.8v-2.8h-3.12V13zm8.16 0h-.8V7.53H69v-.77h4.3v.77h-1.73zm1.54 0l2.36-6.27h.91L78.74 13h-.89l-.6-1.7h-2.64L74 13zm1.78-2.45H77l-1-2.83zm8.66-.39V13h-.8v-2.84L80.28 13h-1l2.64-3-2.59-3.2h1l2.4 3v-3h.8v3l2.4-3h1l-2.5 3.2 2.64 3H86l-2.43-2.87zm9.12-3.4V13h-.8V7.91L88.68 13h-.84V6.76h.8v4.88l3-4.87zM96.08 13h-.8V7.53h-1.75v-.77h4.3v.77h-1.75zm7.48-6.24V13h-.8V7.91L99.57 13h-.84V6.76h.8v4.88l3-4.87zm4.83 6.41a2.1 2.1 0 01-1.17-.38 1.94 1.94 0 01-.79-1.12l.73-.31a1.5 1.5 0 00.46.76 1.15 1.15 0 00.76.27 1.25 1.25 0 00.84-.31 1 1 0 00.35-.76 1 1 0 00-.36-.75 1.31 1.31 0 00-.87-.31h-.52v-.74h.45a1.17 1.17 0 00.78-.26.87.87 0 00.31-.7.78.78 0 00-.3-.65 1.18 1.18 0 00-.75-.24 1 1 0 00-1 .78l-.74-.31a2 2 0 01.62-.86 1.75 1.75 0 011.16-.38 2 2 0 011.34.47 1.51 1.51 0 01.53 1.19 1.37 1.37 0 01-.8 1.29 1.72 1.72 0 01.72.56 1.44 1.44 0 01.28.89 1.69 1.69 0 01-.59 1.32 2.09 2.09 0 01-1.44.55z" stroke="#fff" stroke-miterlimit="10" stroke-width=".2" fill="#fff"/></g></svg>