<svg xmlns="http://www.w3.org/2000/svg" viewBox="0 0 135 40"><defs><linearGradient id="a" x1="21.8" y1="173.29" x2="5.02" y2="156.51" gradientTransform="matrix(1 0 0 -1 0 182)" gradientUnits="userSpaceOnUse"><stop offset="0" stop-color="#00a0ff"/><stop offset=".01" stop-color="#00a1ff"/><stop offset=".26" stop-color="#00beff"/><stop offset=".51" stop-color="#00d2ff"/><stop offset=".76" stop-color="#00dfff"/><stop offset="1" stop-color="#00e3ff"/></linearGradient><linearGradient id="b" x1="33.83" y1="162" x2="9.64" y2="162" gradientTransform="matrix(1 0 0 -1 0 182)" gradientUnits="userSpaceOnUse"><stop offset="0" stop-color="#ffe000"/><stop offset=".41" stop-color="#ffbd00"/><stop offset=".78" stop-color="orange"/><stop offset="1" stop-color="#ff9c00"/></linearGradient><linearGradient id="c" x1="24.83" y1="159.7" x2="2.07" y2="136.95" gradientTransform="matrix(1 0 0 -1 0 182)" gradientUnits="userSpaceOnUse"><stop offset="0" stop-color="#ff3a44"/><stop offset="1" stop-color="#c31162"/></linearGradient><linearGradient id="d" x1="7.3" y1="181.82" x2="17.46" y2="171.66" gradientTransform="matrix(1 0 0 -1 0 182)" gradientUnits="userSpaceOnUse"><stop offset="0" stop-color="#32a071"/><stop offset=".07" stop-color="#2da771"/><stop offset=".48" stop-color="#15cf74"/><stop offset=".8" stop-color="#06e775"/><stop offset="1" stop-color="#00f076"/></linearGradient></defs><g data-name="Слой 2"><rect width="135" height="40" rx="5" ry="5"/><path d="M68.14 21.75A4.26 4.26 0 1072.41 26a4.19 4.19 0 00-4.27-4.25zm0 6.83a2.58 2.58 0 112.4-2.58 2.46 2.46 0 01-2.4 2.58zm-9.32-6.83A4.26 4.26 0 1063.09 26a4.19 4.19 0 00-4.27-4.25zm0 6.83a2.58 2.58 0 112.4-2.58 2.46 2.46 0 01-2.4 2.58zm-11.08-5.52v1.8h4.32a3.77 3.77 0 01-1 2.27 4.42 4.42 0 01-3.34 1.32 4.8 4.8 0 010-9.6A4.64 4.64 0 0151 20.14l1.27-1.27a6.3 6.3 0 00-4.53-1.82 6.61 6.61 0 100 13.21 6.07 6.07 0 004.61-1.85 6 6 0 001.56-4.23 6.27 6.27 0 00-.09-1.12zm45.31 1.4a4 4 0 00-3.64-2.71 4 4 0 00-4 4.25 4.23 4.23 0 007.76 2.37l-1.45-1a2.41 2.41 0 01-2.09 1.17 2.15 2.15 0 01-2.06-1.29l5.69-2.35zm-5.8 1.42a2.33 2.33 0 012.23-2.48 1.64 1.64 0 011.57.9zM82.63 30h1.87V17.5h-1.87zm-3.06-7.3h-.07a2.94 2.94 0 00-2.24-.95 4.26 4.26 0 000 8.51 2.88 2.88 0 002.24-1h.07v.61c0 1.63-.87 2.5-2.27 2.5a2.36 2.36 0 01-2.15-1.51l-1.62.67a4 4 0 003.77 2.52c2.19 0 4-1.29 4-4.43V22h-1.73zm-2.15 5.88a2.58 2.58 0 010-5.15A2.39 2.39 0 0179.7 26a2.38 2.38 0 01-2.28 2.58zm24.39-11.08h-4.48V30h1.87v-4.74h2.61a3.89 3.89 0 100-7.76zm0 6H99.2v-4.26h2.65a2.14 2.14 0 110 4.28zm11.54-1.79a3.49 3.49 0 00-3.33 1.91l1.65.69a1.78 1.78 0 011.71-.91 1.8 1.8 0 012 1.61v.12a4.18 4.18 0 00-1.95-.48c-1.78 0-3.6 1-3.6 2.82a2.89 2.89 0 003.11 2.75 2.65 2.65 0 002.38-1.22h.06v1h1.8v-4.81c0-2.19-1.66-3.46-3.79-3.46zm-.23 6.85c-.61 0-1.46-.31-1.46-1.06 0-1 1.06-1.34 2-1.34a3.32 3.32 0 011.7.42 2.26 2.26 0 01-2.2 2zM123.74 22l-2.14 5.42h-.06L119.32 22h-2l3.33 7.58-1.9 4.21h2L125.82 22zm-16.8 8h1.86V17.5h-1.86z" fill="#fff"/><path d="M10.44 7.54a2 2 0 00-.44 1.4v22.12a1.94 1.94 0 00.47 1.4l.07.08L22.9 20.15v-.3L10.51 7.47z" fill="url(#a)"/><path d="M27 24.28l-4.1-4.13v-.3l4.1-4.13.09.06L32 18.56c1.4.79 1.4 2.09 0 2.89l-4.89 2.78z" fill="url(#b)"/><path d="M27.12 24.23L22.9 20 10.44 32.46a1.62 1.62 0 002.07.07l14.61-8.3" fill="url(#c)"/><path d="M27.12 15.78l-14.61-8.3a1.61 1.61 0 00-2.07.06L22.9 20z" fill="url(#d)"/><path d="M27 24.13l-14.49 8.25a1.66 1.66 0 01-2 0l-.07.07.07.08a1.66 1.66 0 002 0l14.61-8.3z" style="isolation:isolate" opacity=".2"/><path d="M10.44 32.32a2 2 0 01-.44-1.41v.15a1.94 1.94 0 00.47 1.4l.07-.07zM32 21.3l-5 2.83.09.1L32 21.44A1.75 1.75 0 0033.06 20 1.86 1.86 0 0132 21.3z" style="isolation:isolate" opacity=".12"/><path d="M12.51 7.62L32 18.7a1.86 1.86 0 011.06 1.3A1.75 1.75 0 0032 18.56L12.51 7.48C11.12 6.68 10 7.34 10 8.94v.15c0-1.6 1.12-2.26 2.51-1.47z" style="isolation:isolate" opacity=".25" fill="#fff"/><path d="M41.27 13V7h1.83a3 3 0 012.21.83 2.92 2.92 0 01.83 2.17 2.92 2.92 0 01-.83 2.17 3 3 0 01-2.21.83zm.77-.74h1.06a2.3 2.3 0 001.65-.59 2.27 2.27 0 00.61-1.67 2.24 2.24 0 00-.61-1.66 2.26 2.26 0 00-1.65-.6H42zm5.19.74V7H48v6zm3.83.13a2.24 2.24 0 01-1.27-.42 2 2 0 01-.82-1.2l.7-.29a1.69 1.69 0 00.52.84 1.32 1.32 0 00.87.34 1.38 1.38 0 00.86-.27.83.83 0 00.36-.71.92.92 0 00-.36-.78 3.78 3.78 0 00-1.13-.51 2.83 2.83 0 01-1.2-.65 1.31 1.31 0 01-.41-1 1.51 1.51 0 01.51-1.13 2.16 2.16 0 012.57-.09 1.7 1.7 0 01.62.83l-.7.29a1 1 0 00-.38-.52 1.11 1.11 0 00-.8-.26 1.22 1.22 0 00-.76.25.77.77 0 00-.32.62.7.7 0 00.29.56 2.92 2.92 0 00.85.42 6.21 6.21 0 01.75.27 3.53 3.53 0 01.6.36 1.43 1.43 0 01.46.55 1.86 1.86 0 01.16.77 1.66 1.66 0 01-.18.78 1.4 1.4 0 01-.48.54 2.23 2.23 0 01-.64.31 2.44 2.44 0 01-.67.1zm3.88-.13h-.77V7h2a1.92 1.92 0 011.32.51 1.64 1.64 0 01.55 1.28 1.64 1.64 0 01-.55 1.27 1.92 1.92 0 01-1.32.51h-1.23zm0-3.17h1.29a1 1 0 00.77-.32 1 1 0 000-1.45 1 1 0 00-.78-.32h-1.28zM64 12.22a3.11 3.11 0 01-4.4 0 3 3 0 01-.91-2.22 3 3 0 01.88-2.22 2.93 2.93 0 012.2-.91 3 3 0 012.2.91 3.08 3.08 0 01.89 2.22 3 3 0 01-.86 2.22zm-3.83-.5a2.29 2.29 0 003.26 0 2.32 2.32 0 00.64-1.72 2.32 2.32 0 00-.67-1.72 2.29 2.29 0 00-3.26 0 2.35 2.35 0 00-.66 1.72 2.35 2.35 0 00.66 1.72zM65.94 13V7h.94l2.91 4.67V7h.77v6h-.8l-3.05-4.89V13zm6 0V7h.77v6zm2.14 0V7h2.17a1.8 1.8 0 011.22.46A1.52 1.52 0 0178 8.63a1.31 1.31 0 01-.23.76 1.29 1.29 0 01-.59.49 1.47 1.47 0 01.73.52 1.35 1.35 0 01.29.85 1.57 1.57 0 01-.54 1.22 1.83 1.83 0 01-1.28.49zm.77-3.43h1.4a.87.87 0 00.7-.29.9.9 0 00.27-.63A.93.93 0 0077 8a.85.85 0 00-.67-.28h-1.48zm0 2.69h1.55a.9.9 0 00.72-.31 1 1 0 000-1.35 1 1 0 00-.75-.31h-1.52zm4.38.74V7H80v6zm2.14 0V7h.77v5.26h2.6V13zm7.85-5.26h-2.74v1.9H89v.72h-2.52v1.9h2.74V13h-3.51V7h3.51zm4.65 5.39a2.24 2.24 0 01-1.27-.42 2 2 0 01-.82-1.2l.7-.29a1.69 1.69 0 00.52.84 1.32 1.32 0 00.87.34 1.36 1.36 0 00.86-.27.83.83 0 00.36-.71.92.92 0 00-.36-.78 3.7 3.7 0 00-1.12-.51 2.87 2.87 0 01-1.21-.65 1.35 1.35 0 01-.41-1 1.51 1.51 0 01.51-1.13 2.16 2.16 0 012.57-.09 1.7 1.7 0 01.62.83l-.7.29a1 1 0 00-.37-.52 1.15 1.15 0 00-.77-.25 1.22 1.22 0 00-.76.25.76.76 0 00-.31.62.67.67 0 00.29.56 2.68 2.68 0 00.85.42 6.67 6.67 0 01.74.27 3.18 3.18 0 01.6.36 1.35 1.35 0 01.46.55 1.71 1.71 0 01.16.77 1.66 1.66 0 01-.18.78 1.4 1.4 0 01-.48.54 2.23 2.23 0 01-.64.31 2.39 2.39 0 01-.71.09zm5.2 0a2.07 2.07 0 01-1.6-.65 2.39 2.39 0 01-.62-1.71V7h.77v3.8A1.74 1.74 0 0098 12a1.55 1.55 0 002.16 0 1.74 1.74 0 00.37-1.16V7h.77v3.77a2.41 2.41 0 01-.6 1.71 2.07 2.07 0 01-1.63.65z" stroke="#fff" stroke-miterlimit="10" stroke-width=".2" fill="#fff"/></g></svg>