<svg xmlns="http://www.w3.org/2000/svg" viewBox="0 0 119.66 40"><defs><style>.cls-2{fill:#fff}</style></defs><g id="Слой_2" data-name="Слой 2"><g id="livetype"><path d="M110.13 0H7.52a13.21 13.21 0 00-2 .18 6.67 6.67 0 00-1.9.63A6.44 6.44 0 002 2 6.26 6.26 0 00.82 3.62a6.6 6.6 0 00-.62 1.9 13 13 0 00-.18 2v24.96a13 13 0 00.18 2 6.59 6.59 0 00.63 1.9A6.21 6.21 0 002 38a6.27 6.27 0 001.62 1.18 6.7 6.7 0 001.9.63 13.45 13.45 0 002 .18h104.62a13.28 13.28 0 002-.18 6.8 6.8 0 001.91-.63 6.28 6.28 0 001.62-1.18 6.39 6.39 0 001.18-1.61 6.6 6.6 0 00.62-1.9 13.51 13.51 0 00.19-2V7.53a13.51 13.51 0 00-.19-2 6.62 6.62 0 00-.62-1.9A6.47 6.47 0 00116 .82a6.77 6.77 0 00-1.91-.63 13 13 0 00-2-.18h-2z" fill="#a6a6a6"/><path d="M8.44 39.13h-.9A12.69 12.69 0 015.67 39 5.88 5.88 0 014 38.4a5.41 5.41 0 01-1.4-1 5.32 5.32 0 01-1-1.4 5.72 5.72 0 01-.54-1.66 12.41 12.41 0 01-.17-1.87V7.55a12.37 12.37 0 01.17-1.87A5.76 5.76 0 011.6 4a5.37 5.37 0 011-1.4 5.57 5.57 0 011.4-1 5.82 5.82 0 011.65-.54A12.59 12.59 0 017.54.89h104.59a12.38 12.38 0 011.86.16 5.94 5.94 0 011.67.55 5.59 5.59 0 012.41 2.4 5.76 5.76 0 01.54 1.65 13 13 0 01.17 1.89v24.93a12.73 12.73 0 01-.17 1.85 5.74 5.74 0 01-.54 1.67 5.48 5.48 0 01-1 1.39 5.41 5.41 0 01-1.4 1A5.86 5.86 0 01114 39a12.54 12.54 0 01-1.87.16H8.44z"/><g id="_Group_" data-name="Group"><g id="_Group_2" data-name="Group 2"><g id="_Group_3" data-name="Group 3"><path id="_Path_" data-name="Path" class="cls-2" d="M24.77 20.3a5 5 0 012.36-4.15 5.07 5.07 0 00-4-2.16c-1.68-.18-3.31 1-4.16 1s-2.19-1-3.61-1a5.32 5.32 0 00-4.47 2.73C9 20.11 10.4 25 12.25 27.74c.93 1.33 2 2.81 3.43 2.75s1.91-.88 3.58-.88 2.14.88 3.59.85 2.43-1.33 3.32-2.67a11 11 0 001.52-3.09 4.78 4.78 0 01-2.92-4.4z"/><path id="_Path_2" data-name="Path 2" class="cls-2" d="M22 12.21a4.87 4.87 0 001.11-3.49 5 5 0 00-3.21 1.66 4.64 4.64 0 00-1.14 3.36A4.1 4.1 0 0022 12.21z"/></g></g><path class="cls-2" d="M42.3 27.14h-4.73l-1.14 3.36h-2l4.48-12.42H41l4.48 12.42h-2zm-4.24-1.55h3.75L40 20.14h-.05zm17.1.41c0 2.81-1.51 4.62-3.78 4.62A3.07 3.07 0 0148.53 29v4.48h-1.9v-12h1.8v1.51a3.21 3.21 0 012.88-1.6c2.34-.04 3.85 1.77 3.85 4.61zm-1.91 0c0-1.83-.95-3-2.39-3s-2.37 1.23-2.37 3 1 3 2.38 3 2.38-1.18 2.38-3zm11.87 0c0 2.81-1.51 4.62-3.78 4.62A3.07 3.07 0 0158.5 29v4.48h-1.9v-12h1.8v1.51a3.21 3.21 0 012.88-1.6c2.33-.04 3.84 1.77 3.84 4.61zm-1.91 0c0-1.83-.95-3-2.39-3s-2.37 1.23-2.37 3 1 3 2.38 3 2.39-1.2 2.39-3zm8.5 1c.14 1.23 1.33 2 3 2s2.69-.81 2.69-1.92-.68-1.54-2.29-1.94l-1.61-.39c-2.28-.55-3.34-1.62-3.34-3.35 0-2.14 1.87-3.61 4.52-3.61s4.42 1.47 4.48 3.61h-1.9c-.11-1.24-1.14-2-2.63-2s-2.52.76-2.52 1.86c0 .88.65 1.39 2.25 1.79l1.37.34c2.55.6 3.61 1.63 3.61 3.44 0 2.32-1.85 3.78-4.79 3.78-2.75 0-4.61-1.42-4.73-3.67zm11.64-7.7v2.14h1.72v1.47h-1.72v5c0 .78.34 1.14 1.1 1.14a5.81 5.81 0 00.61 0v1.46a5.1 5.1 0 01-1 .09c-1.83 0-2.55-.69-2.55-2.44v-5.25h-1.35v-1.47h1.32V19.3zm2.72 6.7c0-2.85 1.68-4.64 4.29-4.64s4.29 1.79 4.29 4.64-1.65 4.61-4.29 4.61-4.29-1.78-4.29-4.61zm6.7 0c0-2-.9-3.11-2.4-3.11S88 24 88 26s.89 3.11 2.4 3.11 2.4-1.14 2.4-3.11zm3.42-4.56H98V23a2.16 2.16 0 012.18-1.64 2.87 2.87 0 01.64.07v1.74A2.6 2.6 0 00100 23a1.87 1.87 0 00-2 2.13v5.37h-1.81zm13.19 6.4c-.25 1.64-1.85 2.77-3.9 2.77-2.63 0-4.27-1.76-4.27-4.6s1.64-4.68 4.19-4.68 4.08 1.72 4.08 4.47v.64h-6.39v.11a2.36 2.36 0 002.14 2.56h.29a2 2 0 002.09-1.27zm-6.28-2.7h4.53a2.18 2.18 0 00-2.05-2.29h-.17a2.29 2.29 0 00-2.31 2.28z"/></g><path class="cls-2" d="M38 8.73a1.88 1.88 0 012 2 1.9 1.9 0 01-1.82 2H36.6v2h-.93v-6zm-1.4 3.14h1.17c.8 0 1.27-.41 1.27-1.15s-.45-1.17-1.27-1.17H36.6zm4.24.57a2.13 2.13 0 114.25 0 2.13 2.13 0 11-4.25 0zm3.33 0c0-1-.44-1.55-1.21-1.55s-1.21.57-1.21 1.55S42.19 14 43 14s1.17-.58 1.17-1.56zM47.24 14h-.07v.71h-.86V8.44h.89v2.47h.07a1.5 1.5 0 011.39-.79c1.14 0 1.86.89 1.86 2.32s-.72 2.33-1.86 2.33a1.56 1.56 0 01-1.42-.77zm0-1.54c0 .94.47 1.53 1.22 1.53s1.2-.57 1.2-1.53-.45-1.53-1.2-1.53-1.26.58-1.27 1.52zm4.36-3.6a.58.58 0 11.61.54.55.55 0 01-.57-.52zm.13 1.33h.89v4.5h-.89zm6.13 3.29a1.83 1.83 0 01-2 1.3 2 2 0 01-2.08-2.32 2.08 2.08 0 011.78-2.33h.29c1.25 0 2 .86 2 2.27v.31h-3.11A1.19 1.19 0 0055.82 14h.11a1.08 1.08 0 001.07-.52zM54.74 12H57a1.09 1.09 0 00-1-1.16h-.1A1.15 1.15 0 0054.74 12zm4.37-1.81H60v.69a1.22 1.22 0 011.22-.77 1.87 1.87 0 01.4 0V11a2.43 2.43 0 00-.5-.05 1.06 1.06 0 00-1.15 1v2.75h-.89zm3.41 3.9L65 11v-.07h-2.46v-.75h3.52v.65l-2.42 3v.07h2.45v.75h-3.57zm11.95.61h-.92l-.93-3.32h-.07l-.93 3.32h-.91l-1.24-4.5h.9l.81 3.44h.07l.93-3.44H73l.93 3.44H74l.8-3.44h.89z" id="_Group_4" data-name="Group 4"/></g></g></svg>