<svg width="76" height="77" viewBox="0 0 76 77" fill="none" xmlns="http://www.w3.org/2000/svg">
<path d="M0 38.6584C0 22.2502 0 14.046 4.42379 8.45122C5.41216 7.20122 6.54277 6.07061 7.79277 5.08224C13.3876 0.658447 21.5917 0.658447 38 0.658447C54.4083 0.658447 62.6124 0.658447 68.2072 5.08224C69.4572 6.07061 70.5878 7.20122 71.5762 8.45122C76 14.046 76 22.2502 76 38.6584C76 55.0667 76 63.2709 71.5762 68.8657C70.5878 70.1157 69.4572 71.2463 68.2072 72.2347C62.6124 76.6584 54.4083 76.6584 38 76.6584C21.5917 76.6584 13.3876 76.6584 7.79277 72.2347C6.54277 71.2463 5.41216 70.1157 4.42379 68.8657C0 63.2709 0 55.0667 0 38.6584Z" fill="#222329"/>
<path d="M29.3981 21.9476C29.813 19.2003 32.3017 17.2982 34.9568 17.6992L59.1925 21.3598C61.8476 21.7608 63.6635 24.3131 63.2486 27.0604L60.7993 43.2761C60.3844 46.0234 57.8957 47.9255 55.2406 47.5245L31.0049 43.8639C28.3498 43.4629 26.5339 40.9107 26.9488 38.1633L29.3981 21.9476Z" fill="white"/>
<path d="M14.7747 26.5293C11.528 26.8936 9.26643 30.0318 9.60933 33.3375L11.208 48.7488C11.5388 51.9379 14.1971 54.3259 17.3235 53.9752L41.0052 51.3182C44.2519 50.954 46.5135 47.8157 46.1705 44.51L44.5719 29.0987C44.2411 25.9096 41.5828 23.5216 38.4564 23.8724L14.7747 26.5293Z" fill="white" stroke="#222329" stroke-width="2"/>
<rect x="19.9653" y="34.874" width="37.4243" height="26.4559" rx="6" fill="#17DF97" stroke="#222329" stroke-width="2"/>
<rect x="25.0859" y="41.373" width="13.1616" height="13.4576" rx="2" fill="white"/>
<rect x="42.0361" y="42.2417" width="9.94957" height="2.64177" rx="1.32088" fill="white"/>
<rect x="42.0361" y="46.9075" width="9.94957" height="2.51544" rx="1.25772" fill="white"/>
<rect x="42.0361" y="51.447" width="9.94957" height="2.51544" rx="1.25772" fill="white"/>
</svg>
