<svg width="76" height="77" viewBox="0 0 76 77" fill="none" xmlns="http://www.w3.org/2000/svg">
<path d="M0 38.4011C0 21.9928 0 13.7887 4.42379 8.19389C5.41216 6.94389 6.54277 5.81328 7.79277 4.82491C13.3876 0.401123 21.5917 0.401123 38 0.401123C54.4083 0.401123 62.6124 0.401123 68.2072 4.82491C69.4572 5.81328 70.5878 6.94389 71.5762 8.19389C76 13.7887 76 21.9928 76 38.4011C76 54.8094 76 63.0136 71.5762 68.6084C70.5878 69.8584 69.4572 70.989 68.2072 71.9773C62.6124 76.4011 54.4083 76.4011 38 76.4011C21.5917 76.4011 13.3876 76.4011 7.79277 71.9773C6.54277 70.989 5.41216 69.8584 4.42379 68.6084C0 63.0136 0 54.8094 0 38.4011Z" fill="#222329"/>
<path d="M35.2987 14.1345C36.9444 13.0781 39.055 13.0781 40.7008 14.1345L43.8861 16.1793C44.6096 16.6438 45.4407 16.9138 46.2991 16.9633L50.0779 17.1814C52.0303 17.294 53.7379 18.5346 54.4483 20.3566L55.8234 23.8831C56.1358 24.6842 56.6494 25.3912 57.3147 25.9358L60.2437 28.3333C61.757 29.572 62.4093 31.5793 61.9131 33.471L60.9527 37.1323C60.7346 37.9639 60.7346 38.8378 60.9527 39.6695L61.9131 43.3307C62.4093 45.2224 61.757 47.2297 60.2437 48.4684L57.3147 50.866C56.6494 51.4106 56.1358 52.1175 55.8234 52.9186L54.4483 56.4451C53.7379 58.2671 52.0303 59.5077 50.0779 59.6204L46.2991 59.8384C45.4407 59.8879 44.6096 60.158 43.8861 60.6224L40.7008 62.6672C39.055 63.7237 36.9444 63.7237 35.2987 62.6672L32.1134 60.6224C31.3898 60.158 30.5587 59.8879 29.7004 59.8384L25.9215 59.6204C23.9691 59.5077 22.2616 58.2671 21.5512 56.4451L20.1761 52.9186C19.8637 52.1175 19.3501 51.4106 18.6847 50.866L15.7558 48.4684C14.2424 47.2297 13.5902 45.2224 14.0864 43.3307L15.0468 39.6695C15.2649 38.8378 15.2649 37.9639 15.0468 37.1323L14.0864 33.471C13.5902 31.5793 14.2424 29.572 15.7558 28.3333L18.6847 25.9358C19.3501 25.3912 19.8637 24.6842 20.1761 23.8831L21.5512 20.3566C22.2616 18.5346 23.9691 17.294 25.9215 17.1814L29.7004 16.9633C30.5587 16.9138 31.3898 16.6438 32.1134 16.1793L35.2987 14.1345Z" fill="#17DF97"/>
<path d="M21.3989 34.4376C21.3989 34.3341 21.4418 34.2341 21.5274 34.1375C21.6131 34.0341 21.7251 33.9444 21.8634 33.8685C22.0018 33.7857 22.1566 33.7202 22.328 33.6719C22.5059 33.6167 22.6838 33.5891 22.8617 33.5891C22.9605 33.5891 23.0428 33.6167 23.1087 33.6719C23.1812 33.7271 23.2438 33.834 23.2965 33.9927C23.3492 34.1444 23.3953 34.3617 23.4349 34.6446C23.481 34.9205 23.5238 35.2826 23.5634 35.731C23.5897 35.869 23.6128 35.9759 23.6325 36.0518C23.6589 36.1208 23.6918 36.1553 23.7314 36.1553C23.7907 36.1553 23.85 36.0483 23.9093 35.8345C24.3903 34.379 25.0854 33.6512 25.9947 33.6512C26.4163 33.6512 26.7985 33.7892 27.1411 34.0651C27.4903 34.341 27.8132 34.7929 28.1097 35.4206C28.4128 36.0414 28.6994 36.8623 28.9695 37.8833C29.2397 38.8973 29.5098 40.1493 29.7799 41.6393C29.7931 41.7152 29.803 41.7842 29.8096 41.8463C29.8162 41.9084 29.8195 41.967 29.8195 42.0222C29.8195 42.1808 29.7832 42.3188 29.7108 42.4361C29.6449 42.5464 29.5559 42.6396 29.4439 42.7155C29.3319 42.7844 29.2067 42.8362 29.0684 42.8707C28.93 42.9121 28.7916 42.9327 28.6533 42.9327C28.3765 42.9327 28.1756 42.9017 28.0504 42.8396C27.9318 42.7775 27.856 42.6603 27.8231 42.4878C27.632 41.4393 27.4442 40.508 27.2597 39.694C27.0818 38.8801 26.9039 38.1971 26.726 37.6453C26.5547 37.0865 26.3834 36.6623 26.2121 36.3726C26.0408 36.0828 25.8695 35.938 25.6982 35.938C25.5268 35.938 25.3654 36.0518 25.2139 36.2794C25.0689 36.5002 24.9273 36.8485 24.7889 37.3245C24.6505 37.8005 24.5155 38.4041 24.3837 39.1353C24.2585 39.8665 24.1366 40.7391 24.018 41.7532C23.9851 42.0291 23.8533 42.2498 23.6227 42.4154C23.3921 42.5809 23.0988 42.6637 22.7431 42.6637C22.5059 42.6637 22.3247 42.612 22.1995 42.5085C22.0743 42.405 22.0051 42.2636 21.9919 42.0843C21.9326 40.6494 21.8667 39.4698 21.7943 38.5455C21.7284 37.6142 21.6658 36.8692 21.6065 36.3105C21.5472 35.7448 21.4978 35.324 21.4582 35.0481C21.4187 34.7722 21.3989 34.5687 21.3989 34.4376Z" fill="white"/>
<path d="M39.2679 40.5218C39.459 40.3494 39.6468 40.2631 39.8312 40.2631C39.9367 40.2631 40.0322 40.2907 40.1179 40.3459C40.2035 40.4011 40.2991 40.4873 40.4045 40.6046C40.5033 40.7633 40.5725 40.8943 40.612 40.9978C40.6581 41.0944 40.6812 41.191 40.6812 41.2875C40.6812 41.4945 40.5824 41.6911 40.3847 41.8773C40.0684 42.1532 39.7258 42.4016 39.3568 42.6223C38.9879 42.8362 38.6024 43.019 38.2005 43.1707C37.7986 43.3225 37.3835 43.4363 36.9552 43.5122C36.5269 43.595 36.102 43.6364 35.6803 43.6364C35.1466 43.6364 34.6458 43.5639 34.178 43.4191C33.7102 43.2811 33.2918 43.0811 32.9228 42.8189C32.5604 42.5568 32.2541 42.2429 32.0037 41.8773C31.7533 41.5048 31.5754 41.0875 31.47 40.6253C31.4107 40.4321 31.3547 40.308 31.302 40.2528C31.2558 40.1907 31.1768 40.1597 31.0648 40.1597C30.821 40.1597 30.6332 40.0976 30.5014 39.9734C30.3696 39.8493 30.3038 39.6699 30.3038 39.4354C30.3038 39.3388 30.3103 39.2767 30.3235 39.2491L30.3433 39.0422C30.3762 38.7938 30.4388 38.6145 30.5311 38.5041C30.6299 38.3937 30.7815 38.3385 30.9857 38.3385H31.134C31.4107 38.3385 31.6051 38.204 31.7171 37.935C31.9213 37.459 32.1816 37.0244 32.4978 36.6312C32.8141 36.238 33.1699 35.9035 33.5652 35.6276C33.9606 35.3447 34.3823 35.1274 34.8303 34.9757C35.2849 34.817 35.7462 34.7377 36.214 34.7377C36.7015 34.7377 37.1562 34.8136 37.5779 34.9653C38.0061 35.1102 38.3784 35.3137 38.6947 35.5758C39.0109 35.8379 39.258 36.1449 39.4359 36.4967C39.6204 36.8485 39.7126 37.2279 39.7126 37.6349C39.7126 37.9178 39.6599 38.1764 39.5545 38.411C39.4491 38.6455 39.2975 38.8525 39.0999 39.0318C38.9022 39.2043 38.6617 39.3457 38.3784 39.4561C38.1017 39.5664 37.7854 39.6389 37.4296 39.6733L34.0001 40.0355C33.8683 40.0355 33.7596 40.07 33.674 40.139C33.5949 40.208 33.5554 40.3011 33.5554 40.4184C33.5554 40.5977 33.618 40.7702 33.7431 40.9357C33.8749 41.1013 34.0462 41.2496 34.2571 41.3807C34.4745 41.5048 34.7216 41.6048 34.9983 41.6807C35.2816 41.7566 35.5715 41.7945 35.868 41.7945C36.1514 41.7945 36.4413 41.7669 36.7378 41.7118C37.0409 41.6497 37.3374 41.5635 37.6273 41.4531C37.9238 41.3427 38.2104 41.2116 38.4871 41.0599C38.7638 40.9012 39.0241 40.7219 39.2679 40.5218ZM37.0639 37.8522C37.1628 37.8315 37.2484 37.7832 37.3209 37.7074C37.3934 37.6246 37.4296 37.5246 37.4296 37.4073C37.4296 37.3038 37.3934 37.2072 37.3209 37.1176C37.2484 37.0279 37.1496 36.9486 37.0244 36.8796C36.8992 36.8037 36.7542 36.7451 36.5895 36.7037C36.4248 36.6623 36.2502 36.6416 36.0657 36.6416C35.7956 36.6416 35.5188 36.683 35.2355 36.7658C34.9522 36.8485 34.6952 36.9589 34.4646 37.0969C34.234 37.2279 34.0462 37.3762 33.9013 37.5418C33.7563 37.7005 33.6838 37.8591 33.6838 38.0178C33.6838 38.1764 33.7761 38.2558 33.9606 38.2558C34.0726 38.2558 34.2538 38.242 34.5042 38.2144C34.7545 38.1868 35.0313 38.1557 35.3343 38.1213C35.6374 38.0799 35.9438 38.035 36.2535 37.9867C36.5632 37.9384 36.8333 37.8936 37.0639 37.8522Z" fill="white"/>
<path d="M47.5995 38.3592C47.5995 37.2693 47.7247 36.4312 47.9751 35.8448C48.2254 35.2585 48.5845 34.9653 49.0523 34.9653C49.7969 34.9653 50.1692 35.6379 50.1692 36.983C50.1692 37.459 50.1428 37.9074 50.0901 38.3282C50.044 38.749 49.9748 39.156 49.8825 39.5492C49.8694 39.6044 49.8595 39.6561 49.8529 39.7044C49.8463 39.7527 49.843 39.7975 49.843 39.8389C49.843 39.9838 49.8694 40.1114 49.9221 40.2218C50.2515 41.0978 50.861 41.5359 51.7505 41.5359C52.0667 41.5359 52.3632 41.4634 52.64 41.3186C52.9167 41.1737 53.1572 40.9771 53.3615 40.7288C53.5657 40.4735 53.7238 40.1769 53.8358 39.8389C53.9544 39.5009 54.0137 39.1353 54.0137 38.7421C54.0137 38.3006 53.9643 37.935 53.8655 37.6453C53.7667 37.3487 53.658 37.0969 53.5394 36.8899C53.4207 36.6761 53.312 36.4829 53.2132 36.3105C53.1144 36.1311 53.065 35.9311 53.065 35.7103C53.065 35.6069 53.1078 35.4999 53.1934 35.3896C53.2857 35.2723 53.3977 35.1654 53.5295 35.0688C53.6678 34.9722 53.8161 34.8929 53.9742 34.8308C54.1389 34.7687 54.2938 34.7377 54.4387 34.7377C54.6298 34.7377 54.8176 34.8481 55.0021 35.0688C55.1932 35.2895 55.3612 35.5793 55.5061 35.938C55.6577 36.2898 55.7763 36.6933 55.8619 37.1486C55.9542 37.6039 56.0003 38.0626 56.0003 38.5248C56.0003 39.1939 55.8817 39.8251 55.6445 40.4184C55.4073 41.0116 55.0844 41.5324 54.6759 41.9808C54.2674 42.4292 53.7897 42.7844 53.2429 43.0466C52.7026 43.3087 52.1293 43.4398 51.5232 43.4398C51.0092 43.4398 50.5513 43.3432 50.1494 43.15C49.7541 42.9638 49.3884 42.6327 49.0523 42.1567C48.9996 42.067 48.9469 42.0049 48.8942 41.9704C48.8415 41.936 48.7888 41.9187 48.7361 41.9187C48.6702 41.9187 48.6109 41.936 48.5582 41.9704C48.5055 42.0049 48.4495 42.067 48.3902 42.1567C47.9421 42.7706 47.4611 43.2087 46.9472 43.4708C46.4399 43.7329 45.8798 43.864 45.267 43.864C44.5884 43.864 43.9756 43.6674 43.4288 43.2742C42.8885 42.8879 42.4272 42.3361 42.0451 41.6186C41.6629 40.9012 41.3697 40.0321 41.1655 39.0111C40.9612 37.9833 40.8591 36.8347 40.8591 35.5655C40.8591 35.0481 40.8789 34.6204 40.9184 34.2824C40.9579 33.9375 41.0304 33.6685 41.1358 33.4753C41.2413 33.2753 41.3796 33.1373 41.5509 33.0614C41.7222 32.9786 41.943 32.9373 42.2131 32.9373C42.4964 32.9373 42.7007 32.9959 42.8259 33.1132C42.9577 33.2235 43.0235 33.4167 43.0235 33.6926C43.0235 33.9065 43.0038 34.1479 42.9642 34.4169C42.9247 34.6791 42.9049 34.9067 42.9049 35.0998C42.9049 36.1001 42.9708 37.021 43.1026 37.8626C43.241 38.7041 43.4288 39.4285 43.666 40.0355C43.9097 40.6425 44.1964 41.1151 44.5258 41.4531C44.8618 41.7911 45.2308 41.9601 45.6327 41.9601C46.5288 41.9601 47.191 41.4807 47.6193 40.5218C47.6588 40.4459 47.6852 40.377 47.6983 40.3149C47.7115 40.2459 47.7181 40.1735 47.7181 40.0976C47.7181 40.0562 47.7181 40.0148 47.7181 39.9734C47.7181 39.9251 47.7115 39.8734 47.6983 39.8182C47.6654 39.5561 47.639 39.3077 47.6193 39.0732C47.6061 38.8318 47.5995 38.5938 47.5995 38.3592Z" fill="white"/>
</svg>
