<svg xmlns="http://www.w3.org/2000/svg" viewBox="0 0 135 40"><defs><style>.cls-1{fill:#000}.cls-2{fill:#fff}</style></defs><g><g><g><g><path class="cls-1" d="M130.2 40H4.73A4.74 4.74 0 0 1 0 35.27V4.73A4.73 4.73 0 0 1 4.73 0H130.2a4.8 4.8 0 0 1 4.8 4.73v30.54a4.8 4.8 0 0 1-4.8 4.73z"/><path d="M134 35.27a3.83 3.83 0 0 1-3.83 3.83H4.73a3.83 3.83 0 0 1-3.84-3.83V4.72A3.84 3.84 0 0 1 4.73.89H130.2a3.83 3.83 0 0 1 3.8 3.83v30.55z"/><path class="cls-2" d="M30.13 19.78a5.8 5.8 0 0 1 2.76-4.86 5.94 5.94 0 0 0-4.68-2.53c-2-.21-3.87 1.18-4.88 1.18s-2.57-1.16-4.23-1.12a6.23 6.23 0 0 0-5.24 3.2c-2.27 3.92-.58 9.69 1.6 12.86 1.09 1.55 2.36 3.29 4 3.23s2.23-1 4.19-1 2.51 1 4.21 1 2.84-1.56 3.89-3.13a12.83 12.83 0 0 0 1.78-3.62 5.6 5.6 0 0 1-3.4-5.21zm-3.2-9.47a5.71 5.71 0 0 0 1.31-4.09 5.81 5.81 0 0 0-3.76 1.94 5.43 5.43 0 0 0-1.34 3.94 4.8 4.8 0 0 0 3.79-1.79zM53.65 31.5h-2.28l-1.24-3.91h-4.32l-1.19 3.91h-2.21l4.28-13.3h2.65zM49.76 26l-1.12-3.48q-.19-.57-.64-2.52-.2.85-.63 2.51L46.18 26zm14.9.59a5.45 5.45 0 0 1-1.32 3.87 3.87 3.87 0 0 1-2.94 1.26 2.94 2.94 0 0 1-2.72-1.36v5.05H55.5V25.07q0-1.54-.08-3.16h1.88l.12 1.52a3.79 3.79 0 0 1 6.07-.38 5.29 5.29 0 0 1 1.17 3.54zm-2.17.08a4 4 0 0 0-.63-2.31 2.18 2.18 0 0 0-1.86-.95 2.22 2.22 0 0 0-1.43.52 2.43 2.43 0 0 0-.84 1.37 2.79 2.79 0 0 0-.1.65v1.6a2.56 2.56 0 0 0 .64 1.77 2.13 2.13 0 0 0 1.67.72 2.18 2.18 0 0 0 1.88-.93 4.08 4.08 0 0 0 .67-2.44zm13.21-.08a5.45 5.45 0 0 1-1.32 3.87 3.86 3.86 0 0 1-2.94 1.26 2.94 2.94 0 0 1-2.72-1.36v5.05h-2.18V25.07q0-1.54-.08-3.16h1.88l.12 1.52a3.79 3.79 0 0 1 6.07-.38 5.3 5.3 0 0 1 1.17 3.54zm-2.17.08a4 4 0 0 0-.63-2.31 2.18 2.18 0 0 0-1.9-.95 2.22 2.22 0 0 0-1.43.52 2.42 2.42 0 0 0-.84 1.37 2.85 2.85 0 0 0-.1.65v1.6a2.57 2.57 0 0 0 .64 1.77A2.13 2.13 0 0 0 71 30a2.18 2.18 0 0 0 1.88-.93 4.08 4.08 0 0 0 .65-2.4zM88 27.77a3.55 3.55 0 0 1-1.18 2.76 5.24 5.24 0 0 1-3.62 1.17 6.35 6.35 0 0 1-3.45-.83l.49-1.78a5.84 5.84 0 0 0 3.08.85 2.91 2.91 0 0 0 1.88-.54 1.78 1.78 0 0 0 .67-1.45 1.85 1.85 0 0 0-.55-1.36 5.14 5.14 0 0 0-1.84-1Q80 24.25 80 21.74A3.38 3.38 0 0 1 81.25 19a4.83 4.83 0 0 1 3.26-1 6.46 6.46 0 0 1 3 .63L87 20.37a5.24 5.24 0 0 0-2.55-.61 2.58 2.58 0 0 0-1.76.55 1.58 1.58 0 0 0-.53 1.2 1.63 1.63 0 0 0 .61 1.3 6.91 6.91 0 0 0 1.94 1 6.57 6.57 0 0 1 2.53 1.62 3.38 3.38 0 0 1 .76 2.34zm7.09-4.26h-2.35v4.66q0 1.78 1.24 1.78a3.79 3.79 0 0 0 .95-.1l.07 1.61a4.83 4.83 0 0 1-1.66.24 2.56 2.56 0 0 1-2-.77 3.78 3.78 0 0 1-.71-2.59v-4.83h-1.4v-1.6h1.4v-1.76l2.09-.63v2.39h2.35zm10.6 3.12a5.26 5.26 0 0 1-1.26 3.63 4.51 4.51 0 0 1-3.52 1.46 4.29 4.29 0 0 1-3.36-1.4 5.1 5.1 0 0 1-1.25-3.53 5.21 5.21 0 0 1 1.29-3.65 4.47 4.47 0 0 1 3.48-1.42 4.38 4.38 0 0 1 3.4 1.4 5 5 0 0 1 1.22 3.51zm-2.21.07a4.32 4.32 0 0 0-.57-2.28 2.11 2.11 0 0 0-1.91-1.15 2.14 2.14 0 0 0-2 1.15 4.4 4.4 0 0 0-.57 2.32A4.31 4.31 0 0 0 99 29a2.18 2.18 0 0 0 3.85 0 4.33 4.33 0 0 0 .63-2.3zm9.14-2.92a3.7 3.7 0 0 0-.67-.06 2 2 0 0 0-1.74.85 3.19 3.19 0 0 0-.53 1.9v5h-2.13V24.9q0-1.66-.08-3h1.86l.08 1.84h.06a3.28 3.28 0 0 1 1.07-1.52 2.58 2.58 0 0 1 1.54-.51 3.42 3.42 0 0 1 .53 0zm9.54 2.47a5 5 0 0 1-.08 1h-6.4a2.78 2.78 0 0 0 .93 2.17 3.17 3.17 0 0 0 2.09.67 7.07 7.07 0 0 0 2.59-.45l.33 1.48a8 8 0 0 1-3.22.59 4.66 4.66 0 0 1-3.51-1.31 4.85 4.85 0 0 1-1.27-3.52 5.5 5.5 0 0 1 1.19-3.61 4.09 4.09 0 0 1 3.36-1.54 3.58 3.58 0 0 1 3.14 1.54 5.19 5.19 0 0 1 .85 2.98zm-2-.55a2.9 2.9 0 0 0-.41-1.64 1.86 1.86 0 0 0-1.7-.89 2 2 0 0 0-1.7.87 3.18 3.18 0 0 0-.63 1.66h4.44zM43.42 7.27a3.77 3.77 0 0 1 .77-.34 3.27 3.27 0 0 1 1-.14 2.27 2.27 0 0 1 1.48.45 1.47 1.47 0 0 1 .54 1.2 1.46 1.46 0 0 1-.36 1 1.76 1.76 0 0 1-.93.54 2.38 2.38 0 0 1 .59.17 1.59 1.59 0 0 1 .49.32 1.53 1.53 0 0 1 .33.48 1.47 1.47 0 0 1 .12.6 1.76 1.76 0 0 1-.22.91 1.83 1.83 0 0 1-.57.6 2.4 2.4 0 0 1-.79.33 3.88 3.88 0 0 1-.87.1 4.46 4.46 0 0 1-.92-.1 2.86 2.86 0 0 1-.84-.32l.26-.81a4 4 0 0 0 .65.24 2.83 2.83 0 0 0 .81.12 1.58 1.58 0 0 0 1-.3 1.1 1.1 0 0 0 .26-1.32 1.06 1.06 0 0 0-.38-.35 1.65 1.65 0 0 0-.52-.17 3.43 3.43 0 0 0-.57 0h-.44v-.8h.44a1.89 1.89 0 0 0 .56-.08 1.42 1.42 0 0 0 .45-.22 1 1 0 0 0 .3-.34.9.9 0 0 0 .11-.44.83.83 0 0 0-.31-.68 1.3 1.3 0 0 0-.86-.27 2.33 2.33 0 0 0-.72.12 5.3 5.3 0 0 0-.64.25zm8.34 6.16l-.08-.54a1.6 1.6 0 0 1-1.38.65 1.53 1.53 0 0 1-.58-.11 1.43 1.43 0 0 1-.46-.29 1.28 1.28 0 0 1-.3-.44 1.41 1.41 0 0 1-.11-.55 1.45 1.45 0 0 1 .72-1.32 3.91 3.91 0 0 1 2-.44v-.09q0-.93-1-.93a2.19 2.19 0 0 0-1.23.35L49.16 9a3 3 0 0 1 1.62-.41q1.85 0 1.85 1.95v1.74a7.14 7.14 0 0 0 .07 1.13h-.94zm-.15-2.35a2.94 2.94 0 0 0-1.31.22.76.76 0 0 0-.43.73.71.71 0 0 0 .2.55.73.73 0 0 0 .51.18 1 1 0 0 0 .42-.06 1 1 0 0 0 .32-.2 1 1 0 0 0 .23-.31.87.87 0 0 0 .09-.38zm6.07-2.36v.86h-2v3.85h-1V8.72zm6 2.28a3.25 3.25 0 0 1-.15 1 2.39 2.39 0 0 1-.43.8 1.92 1.92 0 0 1-1.51.7 1.45 1.45 0 0 1-1.34-.67v2.48h-1V8.72h.92l.06.75a1.75 1.75 0 0 1 1.59-.84 1.73 1.73 0 0 1 .77.17 1.89 1.89 0 0 1 .62.49 2.34 2.34 0 0 1 .41.76 3 3 0 0 1 .06.95zm-1.07 0a2.39 2.39 0 0 0-.08-.64 1.48 1.48 0 0 0-.24-.5 1.18 1.18 0 0 0-.39-.33 1.09 1.09 0 0 0-.95 0 1.19 1.19 0 0 0-.37.26 1.3 1.3 0 0 0-.35.89v.79a1.37 1.37 0 0 0 .08.48 1.17 1.17 0 0 0 .23.39 1.05 1.05 0 0 0 .36.26 1.12 1.12 0 0 0 .46.09 1.08 1.08 0 0 0 .92-.45 2 2 0 0 0 .33-1.18zm6.7-2.28L68.11 12a14.67 14.67 0 0 1-.83 1.91 4.25 4.25 0 0 1-.77 1.09 2.32 2.32 0 0 1-1.15.59l-.25-.88a2 2 0 0 0 .78-.42 2.32 2.32 0 0 0 .59-.78.59.59 0 0 0 .08-.21.88.88 0 0 0-.06-.22l-1.72-4.36h1.15l.89 2.63c0 .12.09.26.14.42l.15.51c0-.1.07-.23.11-.39s.09-.34.15-.55l.8-2.62h1.12zm1.81 1.96h.48a1.47 1.47 0 0 0 .82-.19.57.57 0 0 0 .29-.48.54.54 0 0 0-.25-.47 1.17 1.17 0 0 0-.68-.18 1.84 1.84 0 0 0-.57.09 3 3 0 0 0-.53.23L70.42 9a2.9 2.9 0 0 1 .81-.31 4 4 0 0 1 .77-.07 3.38 3.38 0 0 1 .65.06 1.79 1.79 0 0 1 .58.21 1.24 1.24 0 0 1 .41.39 1.07 1.07 0 0 1 .16.6.84.84 0 0 1-.09.39 1 1 0 0 1-.23.3 1.25 1.25 0 0 1-.32.21 1.74 1.74 0 0 1-.36.12 1.87 1.87 0 0 1 .45.12 1.55 1.55 0 0 1 .39.23 1.14 1.14 0 0 1 .28.34 1 1 0 0 1 .11.45 1.15 1.15 0 0 1-.2.7 1.46 1.46 0 0 1-.52.45 2.51 2.51 0 0 1-.69.24 3.94 3.94 0 0 1-.74.07 4.09 4.09 0 0 1-.86-.09 2.71 2.71 0 0 1-.77-.29l.27-.69a2.79 2.79 0 0 0 .58.23 2.44 2.44 0 0 0 .66.09 1.38 1.38 0 0 0 .82-.21.63.63 0 0 0 .29-.52.59.59 0 0 0-.1-.34.71.71 0 0 0-.27-.23 1.33 1.33 0 0 0-.41-.12 3.44 3.44 0 0 0-.5 0h-.49zm5.59-1.96v3.67l.36-.72.36-.72 1.16-2.23h1.36v4.71h-1v-2.67c0-.3 0-.7.05-1.06a7 7 0 0 1-.33.76l-.33.66-.6 1.16q-.3.58-.62 1.19h-1.4V8.72zm8.73 0v.86H84v3.85h-1V9.58h-1.45v-.86zm5.35 2.13v.26a1.75 1.75 0 0 1 0 .22h-3.18a1.38 1.38 0 0 0 .42 1 1.53 1.53 0 0 0 1.06.36 3.52 3.52 0 0 0 1.27-.22l.16.73a4 4 0 0 1-1.58.29 2.71 2.71 0 0 1-1-.17 2 2 0 0 1-.74-.48 2.12 2.12 0 0 1-.46-.75 2.87 2.87 0 0 1-.16-1 3.09 3.09 0 0 1 .16-1 2.47 2.47 0 0 1 .45-.8 2.11 2.11 0 0 1 .7-.53 2.14 2.14 0 0 1 .92-.19 2 2 0 0 1 .81.16 1.71 1.71 0 0 1 .62.46 2 2 0 0 1 .39.71 2.87 2.87 0 0 1 .16.95zm-1-.27a1.42 1.42 0 0 0-.27-.9.92.92 0 0 0-.77-.34 1 1 0 0 0-.78.35 1.48 1.48 0 0 0-.37.89zM95 8.76c.19 0 .43-.06.72-.08s.59 0 .89 0h.65a2.69 2.69 0 0 1 .69.15 1.38 1.38 0 0 1 .55.36.94.94 0 0 1 .22.66.92.92 0 0 1-.08.38 1 1 0 0 1-.21.3 1.15 1.15 0 0 1-.3.21 1.47 1.47 0 0 1-.35.12 1.65 1.65 0 0 1 .83.37A1 1 0 0 1 99 12a1.11 1.11 0 0 1-.27.79 1.7 1.7 0 0 1-.67.44 3.28 3.28 0 0 1-.84.19h-2.17zm1 1.88h.53a3 3 0 0 0 .46 0 1.52 1.52 0 0 0 .38-.11.65.65 0 0 0 .26-.19.48.48 0 0 0 .09-.3.5.5 0 0 0-.27-.47 1.78 1.78 0 0 0-.84-.15h-.62zm0 2.09h.63a3.26 3.26 0 0 0 .44 0 1.45 1.45 0 0 0 .41-.11.75.75 0 0 0 .29-.22.58.58 0 0 0 .13-.4.56.56 0 0 0-.36-.56 2.5 2.5 0 0 0-1-.15H96v1.41z"/></g></g></g></g></svg>