<svg xmlns="http://www.w3.org/2000/svg" viewBox="0 0 135 40"><defs><style>.cls-1{fill:#fff;}</style></defs><title>app-ios-en</title><g id="Слой_2" data-name="Слой 2"><g id="Слой_1-2" data-name="Слой 1"><g id="Слой_2-2" data-name="Слой 2"><g id="US_UK_Download_on_the" data-name="US UK Download on the"><path d="M135,36a4,4,0,0,1-3.85,4H3.89A4,4,0,0,1,0,36V4A4,4,0,0,1,3.89,0H131.11A4,4,0,0,1,135,4h0V36Z"/><path class="cls-1" d="M29.61,19.78a6.11,6.11,0,0,1,2.8-5.1A6,6,0,0,0,27.67,12c-2-.22-3.93,1.23-5,1.23s-2.6-1.21-4.28-1.17a6.32,6.32,0,0,0-5.32,3.32c-2.29,4.11-.58,10.15,1.62,13.46,1.1,1.67,2.41,3.45,4.07,3.38s2.26-1.08,4.25-1.08,2.57,1.15,4.27,1.06,2.88-1.66,3.94-3.27a13.64,13.64,0,0,0,1.81-3.79A5.88,5.88,0,0,1,29.61,19.78Z"/><path class="cls-1" d="M26.36,9.88A6.06,6.06,0,0,0,27.68,5.6a5.82,5.82,0,0,0-5.17,6.19A4.78,4.78,0,0,0,26.36,9.88Z"/><path class="cls-1" d="M53.45,32.05h-2.3L49.88,28H45.5l-1.2,4.09H42.06L46.4,18.12h2.69Zm-4-5.82-1.14-3.64c-.12-.37-.34-1.25-.68-2.63h0c-.13.6-.35,1.47-.64,2.63l-1.12,3.64Z"/><path class="cls-1" d="M64.63,26.91a5.84,5.84,0,0,1-1.35,4,3.86,3.86,0,0,1-3,1.33,3,3,0,0,1-2.76-1.43h0v5.3H55.33V25.34c0-1.07,0-2.18-.08-3.32h1.9l.12,1.59h0a3.78,3.78,0,0,1,6.16-.43A5.72,5.72,0,0,1,64.63,26.91ZM62.42,27a4.27,4.27,0,0,0-.64-2.42,2.25,2.25,0,0,0-3.34-.44,2.56,2.56,0,0,0-.85,1.44,3.1,3.1,0,0,0-.1.68v1.66a2.8,2.8,0,0,0,.65,1.86,2.14,2.14,0,0,0,1.69.75,2.17,2.17,0,0,0,1.9-1A4.36,4.36,0,0,0,62.42,27Z"/><path class="cls-1" d="M75.81,26.91a5.75,5.75,0,0,1-1.35,4,3.84,3.84,0,0,1-2.93,1.33,3,3,0,0,1-2.77-1.43h0v5.3H66.53V25.34c0-1.07,0-2.18-.08-3.32h1.9l.12,1.59h0a3.78,3.78,0,0,1,5.32-1.19,4.31,4.31,0,0,1,.84.76A5.7,5.7,0,0,1,75.81,26.91ZM73.6,27A4.19,4.19,0,0,0,73,24.57a2.18,2.18,0,0,0-1.88-1,2.15,2.15,0,0,0-1.45.55,2.52,2.52,0,0,0-.86,1.44,2.59,2.59,0,0,0-.09.68v1.66a2.75,2.75,0,0,0,.65,1.86,2.14,2.14,0,0,0,1.69.75,2.18,2.18,0,0,0,1.9-1A4.36,4.36,0,0,0,73.61,27Z"/><path class="cls-1" d="M88.32,28.17a3.73,3.73,0,0,1-1.2,2.89,5.15,5.15,0,0,1-3.67,1.22A6.19,6.19,0,0,1,80,31.45l.5-1.86a5.72,5.72,0,0,0,3.14.83,2.89,2.89,0,0,0,1.9-.57,1.88,1.88,0,0,0,.68-1.52,2,2,0,0,0-.56-1.43,5.13,5.13,0,0,0-1.86-1.08c-2.36-.91-3.55-2.25-3.55-4A3.61,3.61,0,0,1,81.44,19a4.74,4.74,0,0,1,3.3-1.09,6.36,6.36,0,0,1,3.06.66l-.54,1.82a5.32,5.32,0,0,0-2.59-.64,2.54,2.54,0,0,0-1.77.58,1.69,1.69,0,0,0-.54,1.27A1.66,1.66,0,0,0,83,23a6.69,6.69,0,0,0,2,1,6.67,6.67,0,0,1,2.56,1.66A3.6,3.6,0,0,1,88.32,28.17Z"/><path class="cls-1" d="M95.47,23.68H93.06v4.88q0,1.86,1.26,1.86a3.45,3.45,0,0,0,1-.1L95.34,32a4.87,4.87,0,0,1-1.69.24,2.52,2.52,0,0,1-2-.83,4.06,4.06,0,0,1-.73-2.71v-5H89.51V22h1.41V20.16l2.13-.66V22h2.41Z"/><path class="cls-1" d="M106.22,27a5.63,5.63,0,0,1-1.28,3.8,4.56,4.56,0,0,1-3.57,1.53A4.28,4.28,0,0,1,98,30.81a5.43,5.43,0,0,1-1.27-3.7A5.51,5.51,0,0,1,98,23.29a4.48,4.48,0,0,1,3.54-1.49A4.37,4.37,0,0,1,105,23.27,5.38,5.38,0,0,1,106.22,27ZM104,27a4.69,4.69,0,0,0-.58-2.38,2.12,2.12,0,0,0-1.94-1.21,2.17,2.17,0,0,0-2,1.21,4.81,4.81,0,0,0-.58,2.42,4.73,4.73,0,0,0,.58,2.39,2.19,2.19,0,0,0,3.91,0A4.59,4.59,0,0,0,104,27Z"/><path class="cls-1" d="M113.25,24a3.82,3.82,0,0,0-.68-.06,2,2,0,0,0-1.77.89,3.47,3.47,0,0,0-.54,2v5.27h-2.15V25.18c0-1.16,0-2.22-.08-3.16h1.88l.08,1.92h.06a3.42,3.42,0,0,1,1.1-1.59,2.55,2.55,0,0,1,1.56-.54,2.44,2.44,0,0,1,.54,0Z"/><path class="cls-1" d="M122.92,26.56a4.86,4.86,0,0,1-.08,1h-6.48a2.93,2.93,0,0,0,.93,2.26,3.17,3.17,0,0,0,2.12.7,7.16,7.16,0,0,0,2.63-.47l.33,1.54a7.93,7.93,0,0,1-3.26.63,4.68,4.68,0,0,1-3.55-1.38,5.21,5.21,0,0,1-1.29-3.69,5.93,5.93,0,0,1,1.2-3.78,4.12,4.12,0,0,1,3.4-1.61,3.55,3.55,0,0,1,3.22,1.61A5.52,5.52,0,0,1,122.92,26.56ZM120.86,26a3.11,3.11,0,0,0-.42-1.71,1.88,1.88,0,0,0-1.72-.93,2,2,0,0,0-1.72.91,3.35,3.35,0,0,0-.64,1.73Z"/><path class="cls-1" d="M48.8,9.54a3.53,3.53,0,0,1-1.08,2.83,4.17,4.17,0,0,1-2.82.83,11.65,11.65,0,0,1-1.56-.08V6.38a10.26,10.26,0,0,1,1.83-.14A3.85,3.85,0,0,1,47.8,7,3.24,3.24,0,0,1,48.8,9.54Zm-1.12,0a2.54,2.54,0,0,0-.62-1.83,2.33,2.33,0,0,0-1.79-.64,4.16,4.16,0,0,0-.86.07v5.15q.36,0,.72,0a2.47,2.47,0,0,0,1.89-.7,2.92,2.92,0,0,0,.66-2Z"/><path class="cls-1" d="M54.73,10.63a2.76,2.76,0,0,1-.63,1.87,2.22,2.22,0,0,1-1.75.74,2.08,2.08,0,0,1-1.67-.72,2.7,2.7,0,0,1-.63-1.81,2.69,2.69,0,0,1,.65-1.88,2.39,2.39,0,0,1,3.43,0A2.68,2.68,0,0,1,54.73,10.63Zm-1.1,0a2.32,2.32,0,0,0-.29-1.18,1.08,1.08,0,0,0-1.92,0,2.39,2.39,0,0,0-.29,1.26,2.26,2.26,0,0,0,.27,1.14,1,1,0,0,0,1,.59,1.06,1.06,0,0,0,1-.6,2.2,2.2,0,0,0,.32-1.18Z"/><path class="cls-1" d="M62.67,8.21l-1.5,4.94h-.92L59.63,11c-.15-.53-.28-1.06-.38-1.6h0a12.44,12.44,0,0,1-.39,1.6l-.66,2.14h-1l-1.4-4.94h1.09l.54,2.35c.13.55.24,1.08.32,1.59h0c.08-.41.21-.94.4-1.57l.69-2.37h.87l.65,2.31a16.6,16.6,0,0,1,.39,1.66h0a15.68,15.68,0,0,1,.32-1.66l.6-2.31Z"/><path class="cls-1" d="M68.21,13.14H67.15V10.31c0-.87-.33-1.31-1-1.31a1,1,0,0,0-.81.36,1.31,1.31,0,0,0-.29.83v2.93h-1V8.2H65L65,9h0a1.56,1.56,0,0,1,.54-.6,1.76,1.76,0,0,1,1-.27,1.5,1.5,0,0,1,1.11.45,2.22,2.22,0,0,1,.55,1.66Z"/><path class="cls-1" d="M71.14,13.14H70.08V5.94h1.06Z"/><path class="cls-1" d="M77.4,10.63a2.81,2.81,0,0,1-.63,1.87,2.22,2.22,0,0,1-1.75.74,2.07,2.07,0,0,1-1.67-.72,2.66,2.66,0,0,1-.64-1.81,2.72,2.72,0,0,1,.64-1.88,2.21,2.21,0,0,1,1.73-.73,2.18,2.18,0,0,1,1.7.72A2.68,2.68,0,0,1,77.4,10.63Zm-1.11,0A2.22,2.22,0,0,0,76,9.45a1.07,1.07,0,0,0-1-.59,1.05,1.05,0,0,0-1,.59,2.22,2.22,0,0,0-.29,1.26,2.18,2.18,0,0,0,.28,1.17,1.06,1.06,0,0,0,1.91,0,2.14,2.14,0,0,0,.3-1.21Z"/><path class="cls-1" d="M82.53,13.14h-1l-.08-.57h0a1.58,1.58,0,0,1-1.39.68A1.39,1.39,0,0,1,79,12.8a1.41,1.41,0,0,1-.37-1,1.53,1.53,0,0,1,.73-1.38A3.76,3.76,0,0,1,81.45,10V9.88a.87.87,0,0,0-1-1,2.21,2.21,0,0,0-1.25.37L79,8.55a3.06,3.06,0,0,1,1.61-.43c1.25,0,1.88.68,1.88,2.05V12A9.32,9.32,0,0,0,82.53,13.14Zm-1.1-1.67v-.76c-1.17,0-1.76.33-1.76,1a.79.79,0,0,0,.21.58.69.69,0,0,0,.51.19,1.06,1.06,0,0,0,.65-.22,1,1,0,0,0,.39-.78Z"/><path class="cls-1" d="M88.57,13.14h-.94l0-.83h0a1.59,1.59,0,0,1-1.56.93,1.74,1.74,0,0,1-1.43-.69A2.85,2.85,0,0,1,84,10.73a2.91,2.91,0,0,1,.62-1.94,1.87,1.87,0,0,1,1.48-.69,1.4,1.4,0,0,1,1.34.67h0V5.94h1.07v5.87C88.53,12.28,88.55,12.73,88.57,13.14Zm-1.1-2.08v-.83a2,2,0,0,0,0-.35,1.27,1.27,0,0,0-.39-.67A1,1,0,0,0,86.37,9a1.05,1.05,0,0,0-.93.49,2.08,2.08,0,0,0-.34,1.24,2,2,0,0,0,.33,1.19,1.07,1.07,0,0,0,.93.49,1,1,0,0,0,.8-.4,1.44,1.44,0,0,0,.32-.91Z"/><path class="cls-1" d="M97.66,10.63A2.71,2.71,0,0,1,97,12.5a2.18,2.18,0,0,1-1.74.74,2.09,2.09,0,0,1-1.68-.72A2.7,2.7,0,0,1,93,10.7a2.78,2.78,0,0,1,.65-1.88,2.21,2.21,0,0,1,1.74-.73,2.16,2.16,0,0,1,1.69.72A2.71,2.71,0,0,1,97.66,10.63Zm-1.1,0a2.42,2.42,0,0,0-.28-1.18,1.08,1.08,0,0,0-1.93,0,2.38,2.38,0,0,0-.28,1.26,2.38,2.38,0,0,0,.28,1.17,1.07,1.07,0,0,0,1.47.46,1.05,1.05,0,0,0,.45-.46,2.25,2.25,0,0,0,.29-1.22Z"/><path class="cls-1" d="M103.38,13.14h-1.06V10.31c0-.87-.33-1.31-1-1.31a1,1,0,0,0-.8.36,1.27,1.27,0,0,0-.3.83v2.93h-1V8.2h.94l0,.77h0a1.64,1.64,0,0,1,.54-.6,1.78,1.78,0,0,1,1-.27,1.49,1.49,0,0,1,1.11.45,2.22,2.22,0,0,1,.55,1.66Z"/><path class="cls-1" d="M110.53,9.05h-1.16v2.39c0,.61.21.92.62.92a2.61,2.61,0,0,0,.48,0v.83a2.49,2.49,0,0,1-.81.12,1.22,1.22,0,0,1-1-.4,2,2,0,0,1-.36-1.33V9.05h-.7V8.21h.7V7.29L109.37,7V8.21h1.17v.84Z"/><path class="cls-1" d="M116.15,13.14h-1.06V10.33c0-.89-.32-1.33-1-1.33a1,1,0,0,0-1,.77,1.31,1.31,0,0,0,0,.39v3H112V5.94h1.06v3h0a1.61,1.61,0,0,1,1.43-.83,1.48,1.48,0,0,1,1.1.45,2.33,2.33,0,0,1,.54,1.66Z"/><path class="cls-1" d="M122,10.43a4.17,4.17,0,0,1,0,.5h-3.23a1.5,1.5,0,0,0,.46,1.12,1.6,1.6,0,0,0,1,.35,3.56,3.56,0,0,0,1.29-.24l.17.77a4,4,0,0,1-1.61.31,2.31,2.31,0,0,1-1.75-.68,2.54,2.54,0,0,1-.64-1.81,3,3,0,0,1,.59-1.86A2,2,0,0,1,120,8.06a1.76,1.76,0,0,1,1.56.83A2.78,2.78,0,0,1,122,10.43Zm-1-.28a1.51,1.51,0,0,0-.21-.83.92.92,0,0,0-.84-.46,1,1,0,0,0-.85.45,1.65,1.65,0,0,0-.31.83Z"/></g></g></g></g></svg>