<svg width="1550" height="1547" viewBox="0 0 1550 1547" fill="none" xmlns="http://www.w3.org/2000/svg">
<path d="M197.868 486.737C259.978 257.394 291.033 142.723 381.816 90.8358C472.599 38.9486 587.658 70.1084 817.774 132.428L1061.85 198.528C1291.97 260.848 1407.02 292.008 1459.22 382.616C1511.41 473.223 1480.35 587.895 1418.24 817.237L1352.37 1060.49C1290.26 1289.83 1259.2 1404.5 1168.42 1456.39C1077.64 1508.28 962.577 1477.12 732.461 1414.8L488.385 1348.7C258.269 1286.38 143.211 1255.22 91.0178 1164.61C38.825 1074 69.88 959.333 131.99 729.991L197.868 486.737Z" fill="#F9F9F9"/>
</svg>
