<svg width="423" height="424" viewBox="0 0 423 424" fill="none" xmlns="http://www.w3.org/2000/svg">
<path d="M76.7507 119.079C100.754 63.3938 112.756 35.5515 137.512 25.7094C162.268 15.8673 190.11 27.869 245.795 51.8726L304.858 77.3322C360.543 101.336 388.385 113.338 398.227 138.094C408.069 162.85 396.067 190.692 372.064 246.377L346.604 305.439C322.601 361.124 310.599 388.966 285.843 398.809C261.087 408.651 233.245 396.649 177.56 372.645L118.497 347.186C62.8123 323.182 34.9699 311.18 25.1278 286.424C15.2857 261.668 27.2875 233.826 51.2911 178.141L76.7507 119.079Z" fill="#2ABE8F"/>
</svg>
