<svg width="504" height="504" viewBox="0 0 504 504" fill="none" xmlns="http://www.w3.org/2000/svg">
<path d="M138.471 109.129C181.988 57.7696 203.747 32.0901 233.221 29.6539C262.696 27.2178 288.375 48.9764 339.734 92.4938L394.209 138.651C445.568 182.168 471.248 203.927 473.684 233.401C476.12 262.876 454.361 288.555 410.844 339.914L364.687 394.389C321.17 445.748 299.411 471.428 269.937 473.864C240.462 476.3 214.783 454.541 163.424 411.024L108.949 364.867C57.5898 321.349 31.9102 299.591 29.474 270.116C27.0379 240.642 48.7966 214.963 92.3139 163.603L138.471 109.129Z" fill="#2ABE8F"/>
</svg>
