<svg width="156" height="66" viewBox="0 0 156 66" fill="none" xmlns="http://www.w3.org/2000/svg">
<path d="M137.777 64.8511C134.685 64.8511 131.684 64.8511 128.628 64.8511C128.628 51.0235 128.628 37.2329 128.628 23.3868C131.592 23.3868 134.519 23.3868 137.538 23.3868C137.538 28.7735 137.538 39.4913 137.538 39.4913C137.538 39.4913 143.269 35.3187 149.209 37.5106C153.222 38.9915 155.339 42.2494 155.763 46.4513C156.039 49.1169 155.965 51.801 155.984 54.485C156.02 57.9095 155.984 61.3341 155.984 64.8326C152.928 64.8326 149.909 64.8326 146.779 64.8326C146.779 64.5179 146.779 64.1847 146.779 63.87C146.779 59.2979 146.798 54.7442 146.761 50.172C146.761 49.4131 146.687 48.6171 146.466 47.8952C145.748 45.6369 143.944 44.7113 141.165 45.1001C139.25 45.3592 137.796 47.0622 137.777 49.228C137.741 54.0408 137.759 58.8536 137.759 63.6664C137.777 63.9996 137.777 64.3698 137.777 64.8511Z" fill="#2C2D36"/>
<path d="M88.4732 55.3736C90.9032 56.5583 93.2779 57.7244 95.7631 58.9276C94.9715 60.427 93.959 61.6117 92.7072 62.6113C87.4239 66.8503 76.9126 67.3871 71.482 61.3155C68.2605 57.7244 67.3032 53.4114 67.966 48.7652C68.9416 41.9717 73.1756 37.6217 80.0421 36.6221C85.491 35.8261 90.443 37.1034 94.0327 41.6941C96.8308 45.2852 97.4015 49.4501 96.8124 53.9112C90.2221 53.9112 83.7054 53.9112 77.1887 53.9112C77.1335 55.281 78.4589 57.021 80.0236 57.6874C82.2327 58.65 85.7488 58.5389 88.4732 55.3736ZM87.7369 47.9692C87.3687 45.5628 85.3069 43.9894 82.564 43.9894C79.8764 43.9709 77.5569 45.6924 77.2255 47.9692C80.7048 47.9692 84.184 47.9692 87.7369 47.9692Z" fill="#2C2D36"/>
<path d="M99.7219 58.5576C102.06 57.5024 106.846 55.3319 106.846 55.3319C106.846 55.3319 107.233 55.7439 107.398 55.9846C108.761 57.9652 110.62 58.8722 113.013 58.5946C113.759 58.5009 114.913 57.9499 114.983 57.0767C115.02 56.5584 114.615 55.7069 114.173 55.5033C112.626 54.7999 111.006 54.2445 109.387 53.7447C107.398 53.1154 105.429 52.449 103.79 51.0792C100.053 47.9138 100.145 42.1199 103.974 39.0471C105.815 37.5848 107.951 36.8629 110.233 36.6037C113.197 36.289 116.106 36.6222 118.812 38.029C120.597 38.9546 121.904 40.3059 122.641 42.3236C120.34 43.3602 118.057 44.3968 115.738 45.4519C115.056 44.3783 114.099 43.6934 112.847 43.5082C112.755 43.4897 112.663 43.4712 112.571 43.4527C111.577 43.3231 110.491 43.8229 110.307 44.4893C110.104 45.2298 110.546 45.9147 111.743 46.3219C113.344 46.8587 115.001 47.1919 116.584 47.7287C117.799 48.136 119.014 48.6357 120.082 49.3021C125.66 52.7822 125.697 60.168 120.174 63.7776C118.536 64.8512 116.713 65.4806 114.762 65.7028C111.135 66.11 107.601 65.7768 104.306 63.9998C102.133 62.778 100.532 61.0935 99.7219 58.5576Z" fill="#2C2D36"/>
<path fill-rule="evenodd" clip-rule="evenodd" d="M23.6724 36.0161C23.6724 26.8252 31.5568 19.614 40.7113 20.4321L45.4356 20.8542L44.6187 29.9954L39.8943 29.5733C36.1096 29.235 32.85 32.2164 32.85 36.0161V39.8H40.6395V48.9777H32.85V64.8511H23.6724V36.0161Z" fill="#2C2D36"/>
<path fill-rule="evenodd" clip-rule="evenodd" d="M45.436 51.5602C45.436 42.1452 53.6909 34.8625 63.0326 36.0361L65.0669 36.2917L63.9229 45.3977L61.8886 45.1421C58.0265 44.6569 54.6137 47.6678 54.6137 51.5602V64.851H45.436V51.5602Z" fill="#2C2D36"/>
<path d="M0 8.56351L8.56351 -4.09324e-06L23.1194 18.4962L18.4962 23.1194L0 8.56351Z" fill="#2BC08B"/>
<path d="M2.09985 32.207L2.09985 24.228L17.498 26.0636L17.498 30.3713L2.09985 32.207Z" fill="#2BC08B"/>
</svg>
