<svg width="21" height="16" viewBox="0 0 21 16" fill="none" xmlns="http://www.w3.org/2000/svg">
<path d="M19.1545 0.00390625H1.84592C1.5618 0.00390625 1.29581 0.073756 1.05518 0.188887L10.4592 9.59292L12.567 7.56728C12.567 7.56728 12.5671 7.56707 12.5672 7.56699C12.5672 7.56691 12.5674 7.56683 12.5674 7.56683L19.9456 0.189051C19.7049 0.073838 19.4387 0.00390625 19.1545 0.00390625Z" fill="#2BC08B"/>
<path d="M20.8153 1.05908L13.8721 8.00197L20.8151 14.945C20.9302 14.7043 21.0001 14.4383 21.0001 14.1542V1.84954C21.0001 1.56558 20.9304 1.29964 20.8153 1.05908Z" fill="#2BC08B"/>
<path d="M0.184981 1.05908C0.0698497 1.29972 0 1.56571 0 1.84982V14.1545C0 14.4385 0.0697676 14.7045 0.184817 14.9451L7.12807 8.00217L0.184981 1.05908Z" fill="#2BC08B"/>
<path d="M13.0021 8.87215L10.894 10.898C10.7738 11.0182 10.6164 11.0783 10.459 11.0783C10.3017 11.0783 10.1442 11.0182 10.0241 10.898L7.99806 8.87207L1.05469 15.815C1.29537 15.9302 1.56152 16.0001 1.84572 16.0001H19.1543C19.4384 16.0001 19.7044 15.9303 19.9451 15.8152L13.0021 8.87215Z" fill="#2BC08B"/>
</svg>
