<?xml version="1.0" standalone="no"?>
<!DOCTYPE svg PUBLIC "-//W3C//DTD SVG 20010904//EN"
 "http://www.w3.org/TR/2001/REC-SVG-20010904/DTD/svg10.dtd">
<svg version="1.0" xmlns="http://www.w3.org/2000/svg"
 width="150.000000pt" height="150.000000pt" viewBox="0 0 150.000000 150.000000"
 preserveAspectRatio="xMidYMid meet">
<metadata>
Created by potrace 1.11, written by Peter Selinger 2001-2013
</metadata>
<g transform="translate(0.000000,150.000000) scale(0.100000,-0.100000)"
fill="#000000" stroke="none">
<path d="M400 1493 c-149 -20 -222 -51 -287 -120 -99 -105 -112 -188 -108
-658 1 -192 6 -366 10 -385 40 -193 153 -296 350 -318 114 -13 744 -8 815 6
183 39 285 153 308 347 13 111 8 744 -6 815 -33 156 -140 271 -278 296 -21 3
-48 9 -59 12 -23 6 -707 11 -745 5z"/>
</g>
</svg>
