<svg xmlns="http://www.w3.org/2000/svg" viewBox="0 0 135 40"><g data-name="Слой 2"><g data-name="Слой 1"><g data-name="Слой 2"><g data-name="US UK Download on the"><path d="M135 36a4 4 0 01-3.85 4H3.89A4 4 0 010 36V4a4 4 0 013.89-4h127.22A4 4 0 01135 4v32z"/><path d="M29.61 19.78a6.11 6.11 0 012.8-5.1A6 6 0 0027.67 12c-2-.22-3.93 1.23-5 1.23s-2.6-1.21-4.28-1.17a6.32 6.32 0 00-5.32 3.32c-2.29 4.11-.58 10.15 1.62 13.46 1.1 1.67 2.41 3.45 4.07 3.38s2.26-1.08 4.25-1.08 2.57 1.15 4.27 1.06 2.88-1.66 3.94-3.27a13.64 13.64 0 001.81-3.79 5.88 5.88 0 01-3.42-5.36zm-3.25-9.9a6.06 6.06 0 001.32-4.28 5.82 5.82 0 00-5.17 6.19 4.78 4.78 0 003.85-1.91zm27.09 22.17h-2.3L49.88 28H45.5l-1.2 4.09h-2.24l4.34-13.97h2.69zm-4-5.82l-1.14-3.64c-.12-.37-.34-1.25-.68-2.63-.13.6-.35 1.47-.64 2.63l-1.12 3.64zm15.18.68a5.84 5.84 0 01-1.35 4 3.86 3.86 0 01-3 1.33 3 3 0 01-2.76-1.43v5.3h-2.19V25.34c0-1.07 0-2.18-.08-3.32h1.9l.12 1.59a3.78 3.78 0 016.16-.43 5.72 5.72 0 011.2 3.73zm-2.21.09a4.27 4.27 0 00-.64-2.42 2.25 2.25 0 00-3.34-.44 2.56 2.56 0 00-.85 1.44 3.1 3.1 0 00-.1.68v1.66a2.8 2.8 0 00.65 1.86 2.14 2.14 0 001.69.75 2.17 2.17 0 001.9-1 4.36 4.36 0 00.69-2.53zm13.39-.09a5.75 5.75 0 01-1.35 4 3.84 3.84 0 01-2.93 1.33 3 3 0 01-2.77-1.43v5.3h-2.23V25.34c0-1.07 0-2.18-.08-3.32h1.9l.12 1.59a3.78 3.78 0 015.32-1.19 4.31 4.31 0 01.84.76 5.7 5.7 0 011.18 3.73zM73.6 27a4.19 4.19 0 00-.6-2.43 2.18 2.18 0 00-1.88-1 2.15 2.15 0 00-1.45.55 2.52 2.52 0 00-.86 1.44 2.59 2.59 0 00-.09.68v1.66a2.75 2.75 0 00.65 1.86 2.14 2.14 0 001.69.75 2.18 2.18 0 001.9-1 4.36 4.36 0 00.65-2.51zm14.72 1.17a3.73 3.73 0 01-1.2 2.89 5.15 5.15 0 01-3.67 1.22 6.19 6.19 0 01-3.45-.83l.5-1.86a5.72 5.72 0 003.14.83 2.89 2.89 0 001.9-.57 1.88 1.88 0 00.68-1.52 2 2 0 00-.56-1.43 5.13 5.13 0 00-1.86-1.08c-2.36-.91-3.55-2.25-3.55-4A3.61 3.61 0 0181.44 19a4.74 4.74 0 013.3-1.09 6.36 6.36 0 013.06.66l-.54 1.82a5.32 5.32 0 00-2.59-.64 2.54 2.54 0 00-1.77.58 1.69 1.69 0 00-.54 1.27A1.66 1.66 0 0083 23a6.69 6.69 0 002 1 6.67 6.67 0 012.56 1.66 3.6 3.6 0 01.76 2.51zm7.15-4.49h-2.41v4.88q0 1.86 1.26 1.86a3.45 3.45 0 001-.1l.02 1.68a4.87 4.87 0 01-1.69.24 2.52 2.52 0 01-2-.83 4.06 4.06 0 01-.73-2.71v-5h-1.41V22h1.41v-1.84l2.13-.66V22h2.41zM106.22 27a5.63 5.63 0 01-1.28 3.8 4.56 4.56 0 01-3.57 1.53A4.28 4.28 0 0198 30.81a5.43 5.43 0 01-1.27-3.7A5.51 5.51 0 0198 23.29a4.48 4.48 0 013.54-1.49 4.37 4.37 0 013.46 1.47 5.38 5.38 0 011.22 3.73zM104 27a4.69 4.69 0 00-.58-2.38 2.12 2.12 0 00-1.94-1.21 2.17 2.17 0 00-2 1.21 4.81 4.81 0 00-.58 2.42 4.73 4.73 0 00.58 2.39 2.19 2.19 0 003.91 0A4.59 4.59 0 00104 27zm9.25-3a3.82 3.82 0 00-.68-.06 2 2 0 00-1.77.89 3.47 3.47 0 00-.54 2v5.27h-2.15v-6.92c0-1.16 0-2.22-.08-3.16h1.88l.08 1.92h.06a3.42 3.42 0 011.1-1.59 2.55 2.55 0 011.56-.54 2.44 2.44 0 01.54 0zm9.67 2.56a4.86 4.86 0 01-.08 1h-6.48a2.93 2.93 0 00.93 2.26 3.17 3.17 0 002.12.7 7.16 7.16 0 002.63-.47l.33 1.54a7.93 7.93 0 01-3.26.63 4.68 4.68 0 01-3.55-1.38 5.21 5.21 0 01-1.29-3.69 5.93 5.93 0 011.2-3.78 4.12 4.12 0 013.4-1.61 3.55 3.55 0 013.22 1.61 5.52 5.52 0 01.83 3.19zm-2.06-.56a3.11 3.11 0 00-.42-1.71 1.88 1.88 0 00-1.72-.93 2 2 0 00-1.72.91 3.35 3.35 0 00-.64 1.73zM48.8 9.54a3.53 3.53 0 01-1.08 2.83 4.17 4.17 0 01-2.82.83 11.65 11.65 0 01-1.56-.08V6.38a10.26 10.26 0 011.83-.14A3.85 3.85 0 0147.8 7a3.24 3.24 0 011 2.54zm-1.12 0a2.54 2.54 0 00-.62-1.83 2.33 2.33 0 00-1.79-.64 4.16 4.16 0 00-.86.07v5.15h.72a2.47 2.47 0 001.89-.7 2.92 2.92 0 00.66-2zm7.05 1.09a2.76 2.76 0 01-.63 1.87 2.22 2.22 0 01-1.75.74 2.08 2.08 0 01-1.67-.72 2.7 2.7 0 01-.63-1.81 2.69 2.69 0 01.65-1.88 2.39 2.39 0 013.43 0 2.68 2.68 0 01.6 1.8zm-1.1 0a2.32 2.32 0 00-.29-1.18 1.08 1.08 0 00-1.92 0 2.39 2.39 0 00-.29 1.26 2.26 2.26 0 00.27 1.14 1 1 0 001 .59 1.06 1.06 0 001-.6 2.2 2.2 0 00.32-1.18zm9.04-2.42l-1.5 4.94h-.92L59.63 11a17.7 17.7 0 01-.38-1.6 12.44 12.44 0 01-.39 1.6l-.66 2.14h-1L55.8 8.2h1.09l.54 2.35c.13.55.24 1.08.32 1.59.08-.41.21-.94.4-1.57l.69-2.37h.87l.65 2.31a16.6 16.6 0 01.39 1.66 15.68 15.68 0 01.32-1.66l.6-2.31zm5.54 4.93h-1.06v-2.83c0-.87-.33-1.31-1-1.31a1 1 0 00-.81.36 1.31 1.31 0 00-.29.83v2.93h-1V8.2H65V9a1.56 1.56 0 01.54-.6 1.76 1.76 0 011-.27 1.5 1.5 0 011.11.45 2.22 2.22 0 01.55 1.66zm2.93 0h-1.06v-7.2h1.06zm6.26-2.51a2.81 2.81 0 01-.63 1.87 2.22 2.22 0 01-1.75.74 2.07 2.07 0 01-1.67-.72 2.66 2.66 0 01-.64-1.81 2.72 2.72 0 01.64-1.88 2.21 2.21 0 011.73-.73 2.18 2.18 0 011.7.72 2.68 2.68 0 01.62 1.81zm-1.11 0A2.22 2.22 0 0076 9.45a1.07 1.07 0 00-1-.59 1.05 1.05 0 00-1 .59 2.22 2.22 0 00-.29 1.26 2.18 2.18 0 00.28 1.17 1.06 1.06 0 001.91 0 2.14 2.14 0 00.3-1.21zm6.24 2.51h-1l-.08-.57a1.58 1.58 0 01-1.39.68A1.39 1.39 0 0179 12.8a1.41 1.41 0 01-.37-1 1.53 1.53 0 01.73-1.38 3.76 3.76 0 012.09-.42v-.12a.87.87 0 00-1-1 2.21 2.21 0 00-1.25.37l-.2-.7a3.06 3.06 0 011.61-.43c1.25 0 1.88.68 1.88 2.05V12a9.32 9.32 0 00.04 1.14zm-1.1-1.67v-.76c-1.17 0-1.76.33-1.76 1a.79.79 0 00.21.58.69.69 0 00.51.19 1.06 1.06 0 00.65-.22 1 1 0 00.39-.78zm7.14 1.67h-.94v-.83a1.59 1.59 0 01-1.56.93 1.74 1.74 0 01-1.43-.69 2.85 2.85 0 01-.64-1.82 2.91 2.91 0 01.62-1.94 1.87 1.87 0 011.48-.69 1.4 1.4 0 011.34.67V5.94h1.07v5.87c.02.47.04.92.06 1.33zm-1.1-2.08v-.83a2 2 0 000-.35 1.27 1.27 0 00-.39-.67 1 1 0 00-.71-.21 1.05 1.05 0 00-.93.49 2.08 2.08 0 00-.34 1.24 2 2 0 00.33 1.19 1.07 1.07 0 00.93.49 1 1 0 00.8-.4 1.44 1.44 0 00.32-.91zm10.19-.43A2.71 2.71 0 0197 12.5a2.18 2.18 0 01-1.74.74 2.09 2.09 0 01-1.68-.72A2.7 2.7 0 0193 10.7a2.78 2.78 0 01.65-1.88 2.21 2.21 0 011.74-.73 2.16 2.16 0 011.69.72 2.71 2.71 0 01.58 1.82zm-1.1 0a2.42 2.42 0 00-.28-1.18 1.08 1.08 0 00-1.93 0 2.38 2.38 0 00-.28 1.26 2.38 2.38 0 00.28 1.17 1.07 1.07 0 001.47.46 1.05 1.05 0 00.45-.46 2.25 2.25 0 00.29-1.22zm6.82 2.51h-1.06v-2.83c0-.87-.33-1.31-1-1.31a1 1 0 00-.8.36 1.27 1.27 0 00-.3.83v2.93h-1V8.2h.94v.77a1.64 1.64 0 01.54-.6 1.78 1.78 0 011-.27 1.49 1.49 0 011.11.45 2.22 2.22 0 01.55 1.66zm7.15-4.09h-1.16v2.39c0 .61.21.92.62.92a2.61 2.61 0 00.48 0v.83a2.49 2.49 0 01-.81.12 1.22 1.22 0 01-1-.4 2 2 0 01-.36-1.33V9.05h-.7v-.84h.7v-.92l1.07-.29v1.21h1.17v.84zm5.62 4.09h-1.06v-2.81c0-.89-.32-1.33-1-1.33a1 1 0 00-1 .77 1.31 1.31 0 000 .39v3H112V5.94h1.06v3a1.61 1.61 0 011.43-.83 1.48 1.48 0 011.1.45 2.33 2.33 0 01.54 1.66zm5.85-2.71a4.17 4.17 0 010 .5h-3.23a1.5 1.5 0 00.46 1.12 1.6 1.6 0 001 .35 3.56 3.56 0 001.29-.24l.17.77a4 4 0 01-1.61.31 2.31 2.31 0 01-1.75-.68 2.54 2.54 0 01-.64-1.81 3 3 0 01.59-1.86 2 2 0 011.72-.83 1.76 1.76 0 011.56.83 2.78 2.78 0 01.44 1.54zm-1-.28a1.51 1.51 0 00-.21-.83.92.92 0 00-.84-.46 1 1 0 00-.85.45 1.65 1.65 0 00-.31.83z" fill="#fff"/></g></g></g></g></svg>