<svg xmlns="http://www.w3.org/2000/svg" viewBox="0 0 14 14"><path d="M4.61 0h2.84A2.31 2.31 0 018 .06l2.55.64h1.33A2.11 2.11 0 0114 2.8V7a2.11 2.11 0 01-2.12 2.1h-1.51l-1.72 2.55a1.76 1.76 0 00-.32 1A1.34 1.34 0 017 14a2.14 2.14 0 01-2.2-2.1V9.1H2.13a2.11 2.11 0 01-1.81-1 2 2 0 01-.09-2l2.48-4.9A2.12 2.12 0 014.61 0zm5.14 2l-2.13-.58H4.61a.71.71 0 00-.61.37l-2.51 4.9a.69.69 0 000 .68.72.72 0 00.61.33h4.82a.7.7 0 110 1.4h-.71v2.8a.7.7 0 00.71.7 3.18 3.18 0 01.55-1.73l2.28-3.38zm2.13 5.7a.7.7 0 00.7-.7V2.8a.7.7 0 00-.7-.7h-.71v5.6h.71z"/></svg>