<svg width="11" height="13" fill="none" xmlns="http://www.w3.org/2000/svg"><path d="M8.39 3.662c.784 1 1.672 2.135 1.819 3.945 0 0 .027.354.027.48 0 2.124-1.28 4.12-3.622 4.413 2.168-1.714 1.353-4.413-.683-5.694-.815 1.99-3.811 2.388-1.82 5.656C2.107 11.916.636 10.161.636 8.087c0-.086 0-.173.006-.259.078-2.583 1.42-3.23 1.478-3.256a.278.278 0 01.242.004.255.255 0 01.138.188c.003.017.25 1.56 1.337 1.78.004-.665.036-1.67.274-2.565.343-1.285 1.326-2.632 2.503-3.431a.276.276 0 01.278-.02c.088.044.144.13.144.225 0 1.18.627 1.981 1.353 2.908z" fill="#FA7B33"/></svg>