<svg xmlns="http://www.w3.org/2000/svg" viewBox="0 0 18 18"><path d="M17 0H1a1 1 0 00-.71.29A1 1 0 000 1v16a1 1 0 00.29.71A1 1 0 001 18h16a1 1 0 001-1V1a1 1 0 00-.29-.71A1 1 0 0017 0zM5.34 15.34H2.67V6.75h2.67zM4 5.57A1.54 1.54 0 012.46 4a1.56 1.56 0 01.45-1.1A1.54 1.54 0 014 2.48 1.54 1.54 0 015.55 4a1.54 1.54 0 01-.45 1.12 1.56 1.56 0 01-1.1.45zm11.34 9.77h-2.67v-4.18c0-1 0-2.28-1.39-2.28s-1.6 1.12-1.6 2.21v4.25H7V6.75h2.57v1.17a2.82 2.82 0 012.52-1.38c2.71 0 3.21 1.77 3.21 4.09v4.71z"/></svg>