<svg xmlns="http://www.w3.org/2000/svg" viewBox="0 0 14 14"><path d="M9.39 14H6.55a2.31 2.31 0 01-.55-.06l-2.55-.64H2.12A2.11 2.11 0 010 11.2V7a2.11 2.11 0 012.12-2.1h1.51l1.72-2.55a1.76 1.76 0 00.32-1A1.34 1.34 0 017 0a2.14 2.14 0 012.2 2.1v2.8h2.66a2.11 2.11 0 011.81 1 2 2 0 01.09 2l-2.48 4.9A2.12 2.12 0 019.39 14zm-5.14-1.95l2.13.53h3.01a.71.71 0 00.64-.39l2.48-4.9a.69.69 0 000-.68.72.72 0 00-.61-.33H7.08a.7.7 0 110-1.4h.71V2.1a.7.7 0 00-.71-.7 3.18 3.18 0 01-.55 1.73L4.25 6.51zM2.12 6.3a.7.7 0 00-.7.7v4.2a.7.7 0 00.7.7h.71V6.3h-.71z"/></svg>