<svg xmlns="http://www.w3.org/2000/svg" viewBox="0 0 15 15"><path d="M8.87 10.27h-.3a4.17 4.17 0 01-3-1.65.72.72 0 011.15-.86 2.52 2.52 0 00.87.75 2.66 2.66 0 001.09.33 2.62 2.62 0 001.14-.17 2.52 2.52 0 001-.62l2.05-2a2.7 2.7 0 000-3.78 2.65 2.65 0 00-1.88-.78 2.68 2.68 0 00-1.99.7L7.83 3.35a.71.71 0 01-1-1L8 1.17A4.06 4.06 0 0110.91 0 4.13 4.13 0 0115 4.1 4.07 4.07 0 0113.84 7l-2.05 2.06a4.22 4.22 0 01-1.48.95 4.17 4.17 0 01-1.44.26z"/><path d="M4.13 15a4.13 4.13 0 01-2.97-7l2.05-2.06A4.22 4.22 0 014.69 5a4.12 4.12 0 011.74-.25 4 4 0 011.68.5 4.09 4.09 0 011.33 1.14.72.72 0 01-1.15.86 2.68 2.68 0 00-.86-.75 2.75 2.75 0 00-1.1-.33 2.78 2.78 0 00-1.14.17 2.52 2.52 0 00-1 .62L2.18 9a2.7 2.7 0 00-.75 1.89 2.74 2.74 0 00.79 1.89 2.7 2.7 0 001.88.79 2.93 2.93 0 001.9-.76l1.16-1.16a.71.71 0 011 1L7 13.83A4.09 4.09 0 014.13 15z"/></svg>