<svg width="71" height="30" fill="none" xmlns="http://www.w3.org/2000/svg"><path d="M62.604 28.813H58.39V9.655h4.105v7.44s2.64-1.927 5.377-.914c1.85.684 2.825 2.19 3.02 4.13.127 1.232.093 2.472.102 3.712.017 1.583 0 3.165 0 4.782h-4.241v-.445c0-2.113.008-4.217-.009-6.33 0-.35-.034-.718-.135-1.051-.331-1.044-1.162-1.471-2.443-1.292-.882.12-1.552.907-1.56 1.908-.017 2.223-.009 4.447-.009 6.67.008.155.008.326.008.548zm-22.715-4.379c1.12.547 2.213 1.086 3.358 1.642a5.294 5.294 0 01-1.408 1.702c-2.434 1.959-7.277 2.207-9.779-.599-1.484-1.659-1.925-3.652-1.62-5.798.45-3.14 2.4-5.149 5.564-5.61 2.51-.369 4.792.221 6.446 2.343 1.29 1.659 1.552 3.583 1.28 5.644h-9.04c-.026.633.585 1.437 1.306 1.745 1.017.445 2.637.393 3.893-1.069zm-.34-3.421c-.17-1.112-1.12-1.839-2.383-1.839-1.238-.008-2.307.787-2.46 1.839h4.843zm5.523 4.892c1.077-.487 3.282-1.49 3.282-1.49s.178.19.254.301c.628.915 1.485 1.334 2.587 1.206.344-.043.876-.298.908-.701.017-.24-.17-.633-.374-.727a18.426 18.426 0 00-2.205-.813c-.916-.29-1.823-.598-2.578-1.231-1.722-1.463-1.68-4.14.085-5.56.848-.675 1.832-1.009 2.883-1.128 1.366-.146 2.706.008 3.953.658.822.428 1.425 1.052 1.764 1.984-1.06.48-2.112.958-3.18 1.446-.315-.496-.756-.813-1.332-.898l-.127-.026c-.459-.06-.959.171-1.044.48-.093.341.11.658.662.846.738.248 1.501.402 2.23.65.56.188 1.12.419 1.612.727 2.57 1.608 2.587 5.02.042 6.688a5.654 5.654 0 01-2.493.89c-1.671.188-3.3.034-4.818-.787-1-.565-1.738-1.343-2.111-2.515z" fill="#2C2D36"/><path fill-rule="evenodd" clip-rule="evenodd" d="M10.033 15.49c0-4.246 3.633-7.578 7.85-7.2l2.177.195-.377 4.224-2.176-.196a2.984 2.984 0 00-3.246 2.977v1.748h3.59v4.24h-3.59v7.335h-4.228V15.49zm10.027 7.182c0-4.35 3.803-7.715 8.107-7.173l.938.118-.527 4.208-.938-.118a2.983 2.983 0 00-3.352 2.965v6.14H20.06v-6.14z" fill="#2C2D36"/><path d="M0 3.61L3.6 0l6.12 7.799-1.943 1.95L0 3.61zm.553 9.543V9.79l6.475.774v1.816l-6.475.774z" fill="#2BC08B"/></svg>