<svg width="21" height="16" fill="none" xmlns="http://www.w3.org/2000/svg"><path d="M19.154.004H1.846c-.284 0-.55.07-.79.185l9.403 9.404 2.108-2.026L19.946.189a1.825 1.825 0 00-.792-.185zm1.661 1.056l-6.943 6.942 6.943 6.943c.115-.24.185-.507.185-.79V1.85c0-.284-.07-.55-.185-.79zm-20.63 0C.07 1.3 0 1.565 0 1.85v12.305c0 .284.07.55.185.79l6.943-6.943L.185 1.06z" fill="#2BC08B"/><path d="M13.002 8.872l-2.108 2.026a.613.613 0 01-.87 0L7.998 8.872l-6.943 6.943c.24.115.507.185.79.185h17.31c.283 0 .55-.07.79-.185l-6.943-6.943z" fill="#2BC08B"/></svg>