<svg xmlns="http://www.w3.org/2000/svg" viewBox="0 0 20 20"><path d="M7.67 12a1 1 0 10-1-1 1 1 0 001 1zm4.42 1.39A3.25 3.25 0 0110 14a3.28 3.28 0 01-2.08-.63.27.27 0 00-.36 0 .25.25 0 00-.08.18.3.3 0 00.06.18 3.79 3.79 0 002.47.77 3.79 3.79 0 002.47-.77.28.28 0 00.08-.2.31.31 0 00-.07-.2l-.09-.06h-.22zM12.3 10a1 1 0 00-.71.29 1 1 0 000 1.42 1 1 0 00.71.29h.05a1 1 0 00.7-.32 1.06 1.06 0 00.18-1.1.9.9 0 00-.54-.54 1 1 0 00-.39-.04z"/><path d="M10 0a10 10 0 1010 10A10 10 0 0010 0zm5.86 11.33a3.23 3.23 0 010 .44c0 2.24-2.61 4.06-5.83 4.06S4.2 14 4.2 11.77a3.23 3.23 0 010-.44 1.49 1.49 0 01-.54-.42 1.65 1.65 0 01-.29-.63 1.56 1.56 0 010-.68 1.7 1.7 0 01.37-.6 1.54 1.54 0 01.47-.33 1.48 1.48 0 01.55-.13 1.54 1.54 0 011 .4 7.12 7.12 0 013.9-1.23l.74-3.47a.35.35 0 01.14-.2.31.31 0 01.23 0l2.45.49a1 1 0 01.53-.44 1.05 1.05 0 01.7 0 1 1 0 01.51.46 1 1 0 01.1.68 1 1 0 01-1 .79 1 1 0 01-.64-.27 1 1 0 01-.3-.62L11 4.65l-.65 3.12A7.15 7.15 0 0114.2 9a1.46 1.46 0 01.74-.38 1.53 1.53 0 01.82.08 1.57 1.57 0 01.65.52 1.43 1.43 0 01-.55 2.11z"/></svg>