<svg xmlns="http://www.w3.org/2000/svg" viewBox="0 0 20 20"><path d="M3.25 13.1a3.37 3.37 0 01-1.62-.42A3.06 3.06 0 01.44 8.41 3.21 3.21 0 012.41 7a3.42 3.42 0 012.47.31 3.06 3.06 0 011.19 4.27 3.28 3.28 0 01-2.82 1.52zm0-4.64a2 2 0 00-.42 0 1.59 1.59 0 00-.95.71 1.48 1.48 0 00.57 2.07 1.62 1.62 0 002.16-.56A1.48 1.48 0 004 8.66a1.65 1.65 0 00-.74-.2zm-2.1.36zm15.59-2.58a3.29 3.29 0 01-1.62-.42 3 3 0 01-1.19-4.26 3.17 3.17 0 012-1.45 3.32 3.32 0 012.47.31 3.17 3.17 0 011.52 1.89 3 3 0 01-.33 2.37 3.22 3.22 0 01-2 1.46 3.53 3.53 0 01-.85.1zm-1.36-3.88A1.47 1.47 0 0016 4.43a1.55 1.55 0 001.19.15 1.53 1.53 0 001-.7 1.45 1.45 0 00.16-1.15 1.5 1.5 0 00-.74-.92 1.59 1.59 0 00-1.19-.15 1.53 1.53 0 00-1 .7zM16.74 20a3.29 3.29 0 01-1.62-.42 3 3 0 01-1.19-4.26 3.34 3.34 0 014.44-1.15 3.06 3.06 0 011.19 4.27 3.17 3.17 0 01-2 1.45 3.54 3.54 0 01-.82.11zm0-4.64a1.6 1.6 0 00-1.37.76 1.48 1.48 0 00.63 2.07 1.59 1.59 0 001.19.15 1.55 1.55 0 001-.71 1.46 1.46 0 00-.58-2.06 1.58 1.58 0 00-.86-.21z"/><path d="M14.43 16.83a.86.86 0 01-.41-.1l-8.87-4.8a.79.79 0 01-.32-1.09.86.86 0 011.17-.31l8.86 4.8a.78.78 0 01.32 1.09.84.84 0 01-.75.41zM5.57 9.52a.83.83 0 01-.73-.41A.78.78 0 015.15 8L14 3.17a.88.88 0 011.15.3.78.78 0 01-.32 1.1L6 9.41a.77.77 0 01-.43.11z"/></svg>