<svg xmlns="http://www.w3.org/2000/svg" viewBox="0 0 20 16"><path d="M18 4v.52A11.49 11.49 0 016.3 16 11.72 11.72 0 010 14.19c.33 0 .65.05 1 .05a8.32 8.32 0 005.09-1.73 4.11 4.11 0 01-2.37-.79 4.07 4.07 0 01-1.46-2 4.72 4.72 0 001.84-.08 4.1 4.1 0 01-2.36-1.41 4 4 0 01-.93-2.56 4.27 4.27 0 001.86.52 4 4 0 01-1.35-1.51 4 4 0 01-.48-1.91 3.89 3.89 0 01.56-2 11.44 11.44 0 003.77 3A11.7 11.7 0 009.85 5a4.71 4.71 0 01-.1-1 3.94 3.94 0 01.31-1.55A4 4 0 0111 1.18a4.09 4.09 0 011.28-.87A4 4 0 0113.85 0a4.1 4.1 0 013 1.28 8.26 8.26 0 002.6-1 4 4 0 01-1.8 2.22A8.39 8.39 0 0020 1.9 9 9 0 0118 4z"/></svg>